<?xml version="1.0" standalone="no"?>
<!DOCTYPE svg PUBLIC "-//W3C//DTD SVG 1.1//EN" "http://www.w3.org/Graphics/SVG/1.1/DTD/svg11.dtd" >
<svg xmlns="http://www.w3.org/2000/svg">
<metadata>Generated by IcoMoon</metadata>
<defs>
<font id="diginet" horiz-adv-x="1024">
<font-face units-per-em="1024" ascent="960" descent="-64" />
<missing-glyph horiz-adv-x="1024" />
<glyph unicode="&#x20;" horiz-adv-x="512" d="" />
<glyph unicode="&#xe902;" d="M54.829 726.994c-6.184-0.354-11.735-2.805-16.014-6.644l0.024 0.022 6.603-6.602c1.383 0.505 2.979 0.798 4.644 0.798 1.702 0 3.332-0.305 4.839-0.864l-0.096 0.031z" />
<glyph unicode="&#xe903;" d="M60.832 709.488l12.491 11.392c-4.157 3.521-9.487 5.775-15.332 6.111l-0.070 0.003v-14.85c1.111-0.765 2.068-1.641 2.891-2.634l0.019-0.023z" />
<glyph unicode="&#xe904;" d="M29.984 700.648v-1.547h6.185v1.547c0.002 4.87 2.504 9.155 6.294 11.641l0.053 0.033-5.862 5.863c-4.139-4.613-6.669-10.743-6.669-17.463 0-0.026 0-0.051 0-0.077v0.004z" />
<glyph unicode="&#xe905;" d="M74.566 699.102h8.201v1.547c0 0.005 0 0.011 0 0.017 0 2.33-0.3 4.591-0.864 6.745l0.041-0.185z" />
<glyph unicode="&#xe906;" d="M56.375 699.051c-3.416 0-6.185-2.769-6.185-6.185s2.769-6.185 6.185-6.185c3.416 0 6.185 2.769 6.185 6.185 0 1.708-0.692 3.255-1.812 4.374v0c-1.113 1.119-2.654 1.811-4.357 1.811-0.006 0-0.012 0-0.018 0h0.001z" />
<glyph unicode="&#xe907;" d="M76.189 719.309l-18.867-17.214c4.371-0.46 7.812-3.899 8.272-8.229l0.003-0.041 17.17 18.906v6.577z" />
<glyph unicode="&#xe908;" d="M357.526 724.981c-10.021 0-18.144-8.123-18.144-18.144s8.123-18.144 18.144-18.144c10.021 0 18.144 8.123 18.144 18.144v0c0 10.021-8.123 18.144-18.144 18.144v0zM360.825 705.187h-3.299c-0.911 0-1.649 0.738-1.649 1.649v0 6.598c0 0.911 0.738 1.649 1.649 1.649s1.649-0.738 1.649-1.649v0-4.948h1.649c0.911 0 1.649-0.738 1.649-1.649s-0.738-1.649-1.649-1.649v0z" />
<glyph unicode="&#xe909;" d="M357.526 685.393c-3.18 0.002-6.196 0.7-8.905 1.951l0.132-0.055 0.987-3.947c0.185-0.724 0.831-1.25 1.6-1.25h12.371c0 0 0 0 0 0 0.769 0 1.415 0.526 1.598 1.238l0.002 0.011 0.991 3.949c-2.576-1.196-5.592-1.895-8.771-1.897h-0.001z" />
<glyph unicode="&#xe90a;" d="M357.526 728.28c3.181-0.001 6.198-0.7 8.908-1.951l-0.132 0.055-0.991 3.946c-0.185 0.724-0.831 1.25-1.6 1.25h-12.371c0 0 0 0 0 0-0.769 0-1.415-0.526-1.598-1.238l-0.002-0.011-0.987-3.946c2.577 1.196 5.593 1.895 8.772 1.897h0.001z" />
<glyph unicode="&#xe90b;" d="M646.923 733.228c-0.005 0-0.010 0-0.016 0-0.515 0-0.979-0.214-1.309-0.559l-0.001-0.001c-0.345-0.33-0.56-0.795-0.56-1.309 0-0.006 0-0.012 0-0.017v0.001-12.254c0-1.041-0.844-1.885-1.885-1.885s-1.885 0.844-1.885 1.885v0 12.254c0 0.005 0 0.010 0 0.016 0 0.515-0.215 0.98-0.56 1.309l-0.001 0.001c-0.336 0.346-0.806 0.561-1.326 0.561s-0.99-0.215-1.325-0.56v0c-0.345-0.331-0.56-0.795-0.56-1.31 0-0.006 0-0.011 0-0.017v0.001-12.254c0-0.003 0-0.007 0-0.011 0-1.035-0.839-1.875-1.875-1.875-0.523 0-0.996 0.214-1.336 0.56v0c-0.345 0.33-0.56 0.794-0.56 1.309 0 0.006 0 0.012 0 0.018v-0.001 12.254c0 0.005 0 0.011 0 0.017 0 0.514-0.214 0.979-0.559 1.309l-0.001 0.001c-0.336 0.346-0.806 0.561-1.326 0.561s-0.99-0.215-1.325-0.56v0c-0.345-0.331-0.56-0.795-0.56-1.31 0-0.006 0-0.011 0-0.017v0.001-18.852c0.005-2.446 1.558-4.528 3.731-5.319l0.039-0.013v-22.945c0-0.009 0-0.021 0-0.032 0-1.029 0.429-1.958 1.118-2.618l0.001-0.001c0.661-0.691 1.59-1.12 2.62-1.12 0.011 0 0.022 0 0.034 0h3.769c2.071 0.029 3.741 1.7 3.77 3.768v22.949c2.212 0.804 3.765 2.885 3.771 5.33v18.852c0 0.005 0 0.010 0 0.016 0 0.515-0.214 0.979-0.559 1.309l-0.001 0.001c-0.33 0.345-0.794 0.56-1.309 0.56-0.006 0-0.011 0-0.017 0h0.001z" />
<glyph unicode="&#xe90c;" d="M670.869 732.668c-0.331 0.345-0.795 0.56-1.31 0.56-0.006 0-0.011 0-0.017 0h-7.539c-0.038 0.001-0.084 0.001-0.129 0.001-2.561 0-4.875-1.061-6.525-2.768l-0.002-0.003c-1.709-1.653-2.77-3.967-2.77-6.528 0-0.045 0-0.090 0.001-0.136v0.007-23.563c0.007-0.518 0.425-0.936 0.942-0.943h6.599v-15.081c0.030-2.070 1.7-3.74 3.768-3.77h3.773c2.071 0.029 3.742 1.699 3.771 3.767v47.132c0 0.004 0 0.009 0 0.014 0 0.515-0.215 0.981-0.56 1.311l-0.001 0.001z" />
<glyph unicode="&#xe90d;" d="M943.36 708.88l0.831-3.783 4.126 1.978h0.062v-17.165h4.933v21.641h-4.229z" />
<glyph unicode="&#xe90e;" d="M969.225 702.547c-1.509 0.983-3.355 1.568-5.339 1.568-0.122 0-0.244-0.002-0.365-0.007l0.018 0.001c-0.060 0.001-0.131 0.002-0.202 0.002-0.422 0-0.838-0.028-1.246-0.081l0.048 0.005 0.465 3.317h8.421v4.199h-11.947l-1.429-11.355c0.809 0.124 1.742 0.195 2.691 0.195 0.083 0 0.165-0.001 0.247-0.002h-0.012c4.326 0 6.088-1.368 6.088-3.596 0-2.295-2.231-3.294-4.325-3.294-1.774 0.021-3.451 0.41-4.967 1.094l0.078-0.032-0.899-3.792c1.674-0.78 3.634-1.235 5.7-1.235 0.113 0 0.226 0.001 0.338 0.004h-0.017c5.821 0 9.282 3.559 9.282 7.583 0.007 0.111 0.011 0.24 0.011 0.371 0 2.085-1.036 3.927-2.621 5.042l-0.020 0.013z" />
<glyph unicode="&#xe90f;" d="M977.785 730.196v-2.639c-0.009-2.674-2.167-4.84-4.836-4.863h-0.249c-2.679 0.018-4.846 2.184-4.866 4.861v2.993h-5.298v-2.991c-0.019-2.679-2.185-4.845-4.862-4.863h-0.247c-2.676 0.017-4.841 2.186-4.85 4.862v2.992h-5.387v-2.991c0-0.007 0-0.016 0-0.025 0-2.657-2.141-4.813-4.792-4.838h-0.248c-2.668 0.022-4.823 2.19-4.823 4.861 0 0.001 0 0.001 0 0.002v0 2.6c-3.102-1.042-5.296-3.923-5.296-7.317 0-0.010 0-0.020 0-0.031v0.002-34.417c0-0.002 0-0.004 0-0.006 0-4.252 3.447-7.699 7.699-7.699 0.009 0 0.018 0 0.027 0h35.696c0.007 0 0.015 0 0.024 0 4.247 0 7.691 3.443 7.691 7.691 0 0.005 0 0.011 0 0.016v-0.001 34.417c0 0.002 0 0.005 0 0.008 0 3.434-2.234 6.346-5.327 7.362l-0.055 0.016zM979.338 689.103c0-0.004 0-0.009 0-0.013 0-2.467-1.997-4.467-4.462-4.473h-34.538c-2.469 0.006-4.469 2.009-4.469 4.48 0 0.002 0 0.005 0 0.007v0 24.451c0 0.001 0 0.002 0 0.003 0 1.666 1.351 3.017 3.017 3.017 0.008 0 0.017 0 0.025 0h37.394c0.007 0 0.015 0 0.023 0 1.663 0 3.010-1.348 3.010-3.010 0-0.003 0-0.006 0-0.009v0-24.451z" />
<glyph unicode="&#xe910;" d="M942.154 725.069h0.245c0.006 0 0.014 0 0.021 0 0.75 0 1.422 0.332 1.878 0.857l0.003 0.003c0.375 0.429 0.604 0.995 0.604 1.614 0 0.005 0 0.010 0 0.015v-0.001 3.421c0 0.005 0 0.011 0 0.017 0 0.684-0.274 1.304-0.717 1.757v0c-0.004 0-0.004 0.009-0.008 0.012s-0.004-0.014-0.007-0.011c-0.451 0.443-1.069 0.716-1.751 0.716-0.009 0-0.018 0-0.027 0h-0.244c-0.008 0-0.017 0-0.026 0-0.682 0-1.301-0.273-1.752-0.716v0s0 0-0.007 0-0.015 0-0.018-0.006c-0.453-0.453-0.734-1.079-0.735-1.77v0-3.422c0.001-0.625 0.234-1.196 0.618-1.631l-0.002 0.003c0.463-0.528 1.139-0.86 1.893-0.86 0.011 0 0.022 0 0.033 0h-0.002z" />
<glyph unicode="&#xe911;" d="M955.983 725.471c0.004 0 0.018-0.006 0.021-0.008s0.021 0.009 0.026 0.004c0.384-0.251 0.854-0.4 1.359-0.4 0.012 0 0.025 0 0.037 0h0.243c0.013 0 0.028 0 0.043 0 0.421 0 0.817 0.105 1.165 0.289l-0.013-0.007c0.004 0 0.007-0.007 0.011-0.004s0 0.004 0.007 0.011c0.769 0.437 1.279 1.25 1.279 2.182 0 0.006 0 0.012 0 0.018v-0.001 3.425c0 0.006 0 0.014 0 0.022 0 0.809-0.383 1.528-0.977 1.987l-0.006 0.004c-0.006 0 0 0.008-0.006 0.011l0.004-0.019c-0.406 0.303-0.918 0.485-1.472 0.485-0.012 0-0.024 0-0.036 0h-0.243c-0.009 0-0.019 0-0.030 0-0.641 0-1.225-0.241-1.668-0.638l0.002 0.002s0 0.008 0 0.008-0.027-0.004-0.033-0.009c-0.506-0.458-0.825-1.115-0.832-1.846v-3.433c0.007-0.864 0.444-1.624 1.108-2.078l0.009-0.006z" />
<glyph unicode="&#xe912;" d="M972.697 725.069h0.245c0.008 0 0.018 0 0.028 0 0.758 0 1.439 0.332 1.905 0.858l0.002 0.003c0.386 0.431 0.624 1.001 0.63 1.627v3.422c-0.010 0.953-0.54 1.779-1.32 2.209l-0.013 0.007c-0.009 0.002-0.016 0.005-0.023 0.008l0.001-0.001c-0.063 0.033-0.13 0.063-0.194 0.088-0.013 0.004-0.023 0.009-0.034 0.015l0.001-0.001-0.047 0.022c-0.024 0.009-0.046 0.018-0.070 0.026l-0.036 0.013c-0.026 0.009-0.055 0-0.079 0.008-0.209 0.062-0.449 0.098-0.697 0.098-0.019 0-0.038 0-0.057-0.001h-0.242c-0.034 0.002-0.074 0.003-0.114 0.003-0.089 0-0.177-0.005-0.263-0.014l0.011 0.001c-1.21-0.185-2.126-1.219-2.126-2.466 0-0.004 0-0.009 0-0.013v0.001-3.427c0-0.007 0-0.016 0-0.024 0-1.36 1.103-2.463 2.463-2.463 0.010 0 0.020 0 0.030 0h-0.002z" />
<glyph unicode="&#xe913;" d="M78.456 560.055h-16.495c0.911 0 1.649 0.738 1.649 1.649s-0.738 1.649-1.649 1.649v0h-9.897c-0.911 0-1.649-0.738-1.649-1.649s0.738-1.649 1.649-1.649v0h-16.495c-1.821-0.002-3.297-1.478-3.299-3.299v0-26.392c0.002-1.821 1.478-3.297 3.299-3.299h42.887c1.821 0.002 3.297 1.478 3.299 3.299v0 26.392c-0.002 1.821-1.478 3.297-3.299 3.299v0zM52.064 535.313h-13.196c-0.911 0-1.649 0.738-1.649 1.649v0c0.011 3.035 1.664 5.681 4.117 7.097l0.040 0.021c-0.537 0.78-0.858 1.745-0.858 2.784 0 2.733 2.215 4.948 4.948 4.948s4.948-2.215 4.948-4.948c0-1.040-0.321-2.005-0.869-2.801l0.011 0.017c2.493-1.437 4.146-4.083 4.157-7.116v-0.002c0-0.911-0.738-1.649-1.649-1.649v0zM74.673 545.693l-6.598-6.598c-0.298-0.299-0.711-0.483-1.166-0.483s-0.868 0.185-1.166 0.483l-3.299 3.299c-0.314 0.301-0.509 0.724-0.509 1.192 0 0.911 0.738 1.649 1.649 1.649 0.468 0 0.891-0.195 1.191-0.509l2.133-2.133 5.433 5.431c0.301 0.314 0.724 0.509 1.192 0.509 0.911 0 1.649-0.738 1.649-1.649 0-0.468-0.195-0.891-0.509-1.191l-0.001-0.001z" />
<glyph unicode="&#xe914;" d="M361.682 532.014h-16.495c-0.911 0.001-1.649 0.739-1.649 1.649v0 10.864l2.133-2.133c0.301-0.314 0.724-0.509 1.192-0.509 0.911 0 1.649 0.738 1.649 1.649 0 0.468-0.195 0.891-0.509 1.191l-4.949 4.949c-0.298 0.299-0.711 0.483-1.166 0.483s-0.868-0.185-1.166-0.483l-4.949-4.948c-0.306-0.3-0.496-0.717-0.496-1.179 0-0.911 0.738-1.649 1.649-1.649 0.462 0 0.879 0.19 1.178 0.495v0l2.132 2.132v-10.863c0.003-2.732 2.217-4.945 4.948-4.948h16.496c0.911 0 1.649 0.738 1.649 1.649s-0.738 1.649-1.649 1.649v0z" />
<glyph unicode="&#xe915;" d="M355.084 558.405h16.495c0.911-0.001 1.649-0.739 1.649-1.649v0-10.864l-2.132 2.132c-0.301 0.314-0.724 0.51-1.192 0.51-0.911 0-1.649-0.738-1.649-1.649 0-0.468 0.195-0.891 0.508-1.191l4.95-4.95c0.298-0.298 0.711-0.483 1.166-0.483s0.868 0.185 1.166 0.483l4.948 4.949c0.314 0.301 0.509 0.724 0.509 1.192 0 0.911-0.738 1.649-1.649 1.649-0.468 0-0.891-0.195-1.191-0.509l-2.134-2.134v10.864c-0.003 2.732-2.217 4.945-4.948 4.948h-16.495c-0.911 0-1.649-0.738-1.649-1.649s0.738-1.649 1.649-1.649v0z" />
<glyph unicode="&#xe916;" d="M378.969 529.235c0.537 0.78 0.858 1.745 0.858 2.784 0 2.733-2.215 4.948-4.948 4.948s-4.948-2.215-4.948-4.948c0-1.040 0.321-2.005 0.869-2.801l-0.011 0.017c-2.493-1.437-4.146-4.083-4.157-7.116v-0.002c0.001-0.91 0.739-1.648 1.649-1.648h13.196c0.91 0 1.648 0.737 1.649 1.648v0c-0.011 3.035-1.664 5.681-4.117 7.097l-0.040 0.021z" />
<glyph unicode="&#xe917;" d="M348.486 553.459c0.91 0 1.648 0.737 1.649 1.648v0c-0.011 3.035-1.664 5.681-4.117 7.097l-0.040 0.021c0.537 0.78 0.858 1.745 0.858 2.784 0 2.733-2.215 4.948-4.948 4.948s-4.948-2.215-4.948-4.948c0-1.040 0.321-2.005 0.869-2.801l-0.011 0.017c-2.493-1.437-4.146-4.083-4.157-7.116v-0.002c0.001-0.91 0.739-1.648 1.649-1.648v0z" />
<glyph unicode="&#xe918;" d="M665.147 539.404h-8.247c-0.911 0-1.649-0.738-1.649-1.649v0c0-5.466-4.431-9.897-9.897-9.897s-9.897 4.431-9.897 9.897c0 5.466 4.431 9.897 9.897 9.897v0c0.911 0 1.649 0.738 1.649 1.649v0 8.247c0 0.911-0.738 1.649-1.649 1.649v0c-11.843 0-21.443-9.6-21.443-21.443s9.6-21.443 21.443-21.443c11.843 0 21.443 9.6 21.443 21.443v0c0 0.911-0.738 1.649-1.649 1.649v0z" />
<glyph unicode="&#xe919;" d="M651.951 565.796c-0.911 0-1.649-0.738-1.649-1.649v0-8.247c0-0.911 0.738-1.649 1.649-1.649v0c5.463-0.006 9.891-4.433 9.897-9.896v-0.001c0-0.911 0.738-1.649 1.649-1.649v0h8.247c0.911 0 1.649 0.738 1.649 1.649v0c-0.013 11.838-9.606 21.431-21.442 21.443h-0.001z" />
<glyph unicode="&#xe91a;" d="M974.488 566.039h-32.99c-0.911 0-1.649-0.738-1.649-1.649v0-46.186c0-0.911 0.738-1.649 1.649-1.649v0h32.99c0.911 0 1.649 0.738 1.649 1.649v0 46.186c0 0.911-0.738 1.649-1.649 1.649v0zM951.395 557.791h13.196c0.911 0 1.649-0.738 1.649-1.649s-0.738-1.649-1.649-1.649v0h-13.196c-0.911 0-1.649 0.738-1.649 1.649s0.738 1.649 1.649 1.649v0zM969.057 530.233l-6.598-6.598c-0.298-0.298-0.711-0.482-1.166-0.482-0.911 0-1.649 0.738-1.649 1.649v0 2.616l-3.783-3.783c-0.298-0.297-0.71-0.481-1.165-0.481-0.911 0-1.649 0.737-1.65 1.648v0 2.616l-3.783-3.783c-0.301-0.314-0.724-0.509-1.192-0.509-0.911 0-1.649 0.738-1.649 1.649 0 0.468 0.195 0.891 0.509 1.191l6.599 6.599c0.298 0.297 0.71 0.481 1.165 0.481 0.91 0 1.648-0.737 1.65-1.647v0-2.617l3.783 3.783c0.298 0.297 0.71 0.481 1.165 0.481 0.911 0 1.649-0.737 1.65-1.648v0-2.616l3.783 3.783c0.301 0.314 0.724 0.509 1.192 0.509 0.911 0 1.649-0.738 1.649-1.649 0-0.468-0.195-0.891-0.509-1.191l-0.001-0.001zM967.89 537.998h-19.794c-0.911 0-1.649 0.738-1.649 1.649s0.738 1.649 1.649 1.649v0h19.794c0.911 0 1.649-0.738 1.649-1.649s-0.738-1.649-1.649-1.649v0zM967.89 546.245h-19.794c-0.911 0-1.649 0.738-1.649 1.649s0.738 1.649 1.649 1.649v0h19.794c0.911 0 1.649-0.738 1.649-1.649s-0.738-1.649-1.649-1.649v0z" />
<glyph unicode="&#xe91b;" d="M76.701 369.060l-3.959 6.598c-0.294 0.483-0.817 0.801-1.414 0.801 0 0 0 0 0 0h-7.873l-2.811 14.648c2.866 1.767 4.747 4.89 4.747 8.451 0 5.465-4.431 9.896-9.896 9.896s-9.896-4.431-9.896-9.896c0-3.561 1.881-6.683 4.704-8.426l0.043-0.024-2.811-14.648h-7.874c-0.597 0-1.12-0.318-1.41-0.793l-0.004-0.007-3.959-6.598c-0.147-0.242-0.234-0.534-0.234-0.847 0-0.911 0.737-1.649 1.648-1.65v0h39.588c0.911 0.001 1.648 0.74 1.648 1.65 0 0.313-0.087 0.606-0.239 0.855l0.004-0.007z" />
<glyph unicode="&#xe91c;" d="M40.65 359.963h29.691c1.821 0.002 3.296 1.478 3.299 3.299v0h-36.289c0.002-1.821 1.478-3.296 3.299-3.299v0z" />
<glyph unicode="&#xe91d;" d="M380.866 397.511c-0.063 1.388-0.063 2.714-0.063 4.040 0 0.010 0 0.022 0 0.034 0 1.027-0.833 1.86-1.86 1.86-0.012 0-0.023 0-0.035 0h0.002c-7.89 0-13.886 2.272-18.873 7.133-0.347 0.322-0.813 0.52-1.325 0.52s-0.979-0.198-1.326-0.522l0.001 0.001c-4.987-4.86-10.983-7.133-18.873-7.133-0.010 0-0.022 0-0.034 0-1.027 0-1.86-0.833-1.86-1.86 0-0.012 0-0.024 0-0.036v0.002c0-1.326 0-2.651-0.063-4.040-0.253-13.255-0.632-31.433 21.523-39.070l0.631-0.126 0.631 0.126c22.093 7.637 21.777 25.752 21.523 39.070zM357.201 379.143c-0.352-0.31-0.816-0.501-1.325-0.505h-0.064c-0.531 0.010-1.005 0.252-1.324 0.628l-0.002 0.003-5.87 6.501 2.841 2.525 4.601-5.112 10.229 9.72 2.588-2.777z" />
<glyph unicode="&#xe91e;" d="M662.274 401.839h-0.721v2.165c0 0.854-0.692 1.547-1.547 1.547s-1.547-0.692-1.547-1.547v0-2.165h-6.185v2.165c0 0.854-0.692 1.547-1.547 1.547s-1.547-0.692-1.547-1.547v0-2.165h-6.185v2.165c0 0.854-0.692 1.547-1.547 1.547s-1.547-0.692-1.547-1.547v-2.165h-6.185v2.165c0 0.854-0.692 1.547-1.547 1.547s-1.547-0.692-1.547-1.547v0-2.165h-6.185v2.165c0 0.854-0.692 1.547-1.547 1.547s-1.547-0.692-1.547-1.547v0-2.165h-0.516c-3.13-0.004-5.666-2.541-5.67-5.67v0-4.639h52.784v4.639c-0.004 3.13-2.54 5.667-5.669 5.671v0z" />
<glyph unicode="&#xe91f;" d="M615.16 361.22c0.004-3.13 2.54-5.666 5.669-5.67v0h41.444c3.13 0.004 5.666 2.54 5.67 5.669v0 27.217h-52.784zM658.562 364.211c0-0.854-0.692-1.547-1.547-1.547v0h-6.185c-0.854 0-1.547 0.692-1.547 1.547v0 6.388c0 0.854 0.692 1.547 1.547 1.547v0h6.185c0.854 0 1.547-0.692 1.547-1.547v0zM649.733 381.879c-0.288 0.281-0.466 0.673-0.466 1.107 0 0.854 0.692 1.547 1.547 1.547 0.434 0 0.826-0.179 1.107-0.466v0l2-2 2 2c0.281 0.288 0.673 0.466 1.107 0.466 0.854 0 1.547-0.692 1.547-1.547 0-0.434-0.179-0.826-0.466-1.107v0l-1.997-2 2.103-2.103c0.272-0.278 0.44-0.66 0.44-1.080 0-0.854-0.692-1.547-1.547-1.547-0.42 0-0.802 0.168-1.080 0.44v0l-2.103 2.103-2.103-2.103c-0.281-0.288-0.673-0.466-1.107-0.466-0.854 0-1.547 0.692-1.547 1.547 0 0.434 0.179 0.826 0.466 1.107v0l2.103 2.103zM637.362 381.879c-0.288 0.281-0.466 0.673-0.466 1.107 0 0.854 0.692 1.547 1.547 1.547 0.434 0 0.826-0.179 1.107-0.466v0l2.003-2 2 2c0.281 0.288 0.673 0.466 1.107 0.466 0.854 0 1.547-0.692 1.547-1.547 0-0.434-0.179-0.826-0.466-1.107v0l-2-2 2.103-2.103c0.272-0.278 0.44-0.66 0.44-1.080 0-0.854-0.692-1.547-1.547-1.547-0.42 0-0.802 0.168-1.080 0.44v0l-2.103 2.103-2.103-2.103c-0.278-0.272-0.66-0.44-1.080-0.44-0.854 0-1.547 0.692-1.547 1.547 0 0.42 0.168 0.802 0.44 1.080v0l2.103 2.103zM637.262 365.302l2.103 2.103-2 2c-0.288 0.281-0.466 0.673-0.466 1.107 0 0.854 0.692 1.547 1.547 1.547 0.434 0 0.826-0.179 1.107-0.466v0l2-2 2 2c0.281 0.288 0.673 0.466 1.107 0.466 0.854 0 1.547-0.692 1.547-1.547 0-0.434-0.179-0.826-0.466-1.107v0l-2-2 2.103-2.103c0.272-0.278 0.44-0.66 0.44-1.080 0-0.854-0.692-1.547-1.547-1.547-0.42 0-0.802 0.168-1.080 0.44v0l-2.103 2.103-2.103-2.103c-0.281-0.288-0.673-0.466-1.107-0.466-0.854 0-1.547 0.692-1.547 1.547 0 0.434 0.179 0.826 0.466 1.107v0zM624.541 382.972c0 0.854 0.692 1.547 1.547 1.547v0h6.185c0.854 0 1.547-0.692 1.547-1.547v0-6.392c0-0.854-0.692-1.547-1.547-1.547v0h-6.185c-0.854 0-1.547 0.692-1.547 1.547v0zM624.995 369.404c-0.288 0.281-0.466 0.673-0.466 1.107 0 0.854 0.692 1.547 1.547 1.547 0.434 0 0.826-0.179 1.107-0.466v0l2-2 2 2c0.28 0.28 0.667 0.454 1.095 0.454 0.855 0 1.547-0.693 1.547-1.547 0-0.427-0.173-0.814-0.453-1.094v0l-2.003-2 2.103-2.103c0.272-0.278 0.44-0.66 0.44-1.080 0-0.854-0.692-1.547-1.547-1.547-0.42 0-0.802 0.168-1.080 0.44v0l-2.103 2.103-2.103-2.103c-0.281-0.288-0.673-0.466-1.107-0.466-0.854 0-1.547 0.692-1.547 1.547 0 0.434 0.179 0.826 0.466 1.107v0l2.103 2.103z" />
<glyph unicode="&#xe920;" d="M652.377 369.055h3.093v-3.299h-3.093v3.299z" />
<glyph unicode="&#xe921;" d="M627.635 381.426h3.093v-3.299h-3.093v3.299z" />
<glyph unicode="&#xe922;" d="M970.795 371.533c0 0.013 0 0.027 0 0.042 0 4.555-3.692 8.247-8.247 8.247s-8.247-3.692-8.247-8.247c0-2.689 1.287-5.077 3.278-6.583l0.021-0.015v-6.639c0.001-0.911 0.74-1.649 1.65-1.649 0.341 0 0.657 0.103 0.92 0.28l2.378 1.586 2.384-1.59c0.257-0.174 0.574-0.277 0.915-0.277 0.911 0 1.649 0.738 1.649 1.649v0 6.639c2.005 1.509 3.291 3.881 3.299 6.554v0.001z" />
<glyph unicode="&#xe923;" d="M975.744 406.172h-36.289c-0.911 0-1.649-0.738-1.649-1.649v0-42.887c0-0.911 0.738-1.649 1.649-1.649v0h14.845v3.482c-2.040 2.081-3.299 4.934-3.299 8.081 0 6.377 5.169 11.546 11.546 11.546s11.546-5.169 11.546-11.546c0-3.147-1.259-6-3.301-8.083l0.002 0.002v-3.482h4.948c0.911 0 1.649 0.738 1.649 1.649v0 42.887c0 0.911-0.738 1.649-1.649 1.649v0zM967.496 388.027h-19.794c-0.911 0-1.649 0.738-1.649 1.649s0.738 1.649 1.649 1.649v0h19.794c0.911 0 1.649-0.738 1.649-1.649s-0.738-1.649-1.649-1.649v0zM967.496 396.275h-19.794c-0.911 0-1.649 0.738-1.649 1.649s0.738 1.649 1.649 1.649v0h19.794c0.911 0 1.649-0.738 1.649-1.649s-0.738-1.649-1.649-1.649v0z" />
<glyph unicode="&#xe924;" d="M56.412 234.188c3.965 0.070 7.153 3.301 7.153 7.276 0 0.042 0 0.083-0.001 0.124v-0.006c0.001 0.037 0.001 0.081 0.001 0.124 0 3.976-3.188 7.208-7.147 7.279h-0.007c-3.971-0.069-7.163-3.304-7.163-7.285 0-0.042 0-0.083 0.001-0.124v0.006c-0.001-0.033-0.001-0.073-0.001-0.112 0-3.98 3.192-7.214 7.156-7.282h0.006z" />
<glyph unicode="&#xe925;" d="M69.099 227.914c-0.352 1.079-2.384 4.351-7.889 4.381l-10.776-0.028c-5.344 0.299-7.478-2.859-7.811-4.259 0 0-3.607-11.524-2.991-14.193 0.384-1.657 3.255-3.684 6.32-5.19l-4.072-12.423h28.75l-3.966 12.858c2.732 1.446 5.133 3.255 5.48 4.757 0.628 2.701-3.045 14.098-3.045 14.098zM51.592 215.215c-0.48-0.221-1.040-0.35-1.631-0.352h-0.001c-0.014 0-0.031 0-0.048 0-2.28 0-4.129 1.848-4.129 4.129s1.848 4.129 4.129 4.129c2.24 0 4.064-1.784 4.127-4.009v-0.006c0.553 0.402 1.211 0.694 1.925 0.832l0.031 0.005v-0.009c0.216 0.045 0.464 0.070 0.718 0.070s0.502-0.026 0.742-0.074l-0.024 0.004c2.713-0.601 8.709-3.26 8.709-3.26-2.228-2.437-5.421-3.959-8.97-3.959-0.032 0-0.064 0-0.096 0h0.005c-0.153 0-0.302 0-0.44 0.010v0c-0.538 0.013-1.021 0.048-1.456 0.101-2.768 0.324-3.558 1.353-3.591 2.39z" />
<glyph unicode="&#xe926;" d="M379.296 237.439h-42.887c-1.821-0.002-3.297-1.478-3.299-3.299v0-23.093c0.002-1.821 1.478-3.297 3.299-3.299h42.887c1.821 0.002 3.297 1.478 3.299 3.299v0 23.093c-0.002 1.821-1.478 3.297-3.299 3.299v0zM363.968 219.777l-6.598-6.598c-0.298-0.299-0.711-0.483-1.166-0.483s-0.868 0.185-1.166 0.483l-3.299 3.299c-0.314 0.301-0.509 0.724-0.509 1.192 0 0.911 0.738 1.649 1.649 1.649 0.468 0 0.891-0.195 1.191-0.509l2.133-2.133 5.431 5.431c0.301 0.314 0.724 0.509 1.192 0.509 0.911 0 1.649-0.738 1.649-1.649 0-0.468-0.195-0.891-0.509-1.191l-0.001-0.001zM369.399 227.542h-23.093c-0.911 0-1.649 0.738-1.649 1.649s0.738 1.649 1.649 1.649v0h23.093c0.911 0 1.649-0.738 1.649-1.649s-0.738-1.649-1.649-1.649v0z" />
<glyph unicode="&#xe927;" d="M945.924 237.223c0.007-7.725 6.27-13.984 13.996-13.984 7.73 0 13.996 6.266 13.996 13.996s-6.266 13.996-13.996 13.996c-0.001 0-0.002 0-0.003 0v0c-7.728 0-13.993-6.265-13.993-13.993 0-0.005 0-0.010 0-0.015v0.001z" />
<glyph unicode="&#xe928;" d="M941.359 205.030c2.287-1.603 7.23-3.653 17.517-3.653 0.109-0.001 0.238-0.001 0.367-0.001 3.078 0 6.109 0.204 9.079 0.6l-0.348-0.038c-1.020 1.687-1.623 3.725-1.623 5.904 0 6.276 5.006 11.383 11.243 11.547h0.015c-0.837 1.79-1.791 3.332-2.9 4.747l0.040-0.053c-0.818 0.935-1.79 1.71-2.881 2.292l-0.055 0.027c-2.925-3.291-7.168-5.354-11.894-5.354-4.723 0-8.964 2.061-11.875 5.332l-0.014 0.016c-1.116-0.619-2.062-1.397-2.846-2.318l-0.012-0.014c-3.11-4.013-5.144-9.002-5.595-14.44l-0.007-0.099c-0.106-1.446 0.578-3.651 1.788-4.495z" />
<glyph unicode="&#xe929;" d="M977.607 217.201c-5.179 0-9.378-4.199-9.378-9.378s4.199-9.378 9.378-9.378c5.179 0 9.378 4.199 9.378 9.378v0c0 5.179-4.199 9.378-9.378 9.378v0zM982.236 206.098h-9.406c-0.009 0-0.020 0-0.031 0-0.599 0-1.085 0.486-1.085 1.085s0.486 1.085 1.085 1.085c0.011 0 0.022 0 0.032 0h9.403c0.009 0 0.020 0 0.031 0 0.599 0 1.085-0.486 1.085-1.085s-0.486-1.085-1.085-1.085c-0.011 0-0.022 0-0.032 0h0.002z" />
<glyph unicode="&#xe92a;" glyph-name="Mask-Group--2" d="M512 800c-194.404 0-352-157.596-352-352s157.596-352 352-352c194.404 0 352 157.596 352 352v0c0 194.404-157.596 352-352 352v0zM576 416h-64c-17.673 0-32 14.327-32 32v0 128c0 17.673 14.327 32 32 32s32-14.327 32-32v0-96h32c17.673 0 32-14.327 32-32s-14.327-32-32-32v0zM512 32c-61.687 0.034-120.2 13.587-172.748 37.856l2.56-1.060 19.149-76.578c3.59-14.038 16.124-24.25 31.044-24.252h239.992c0 0 0 0 0.001 0 14.915 0 27.447 10.204 30.995 24.013l0.048 0.222 19.217 76.612c-49.984-23.206-108.491-36.759-170.159-36.796h-0.013zM512 864c61.71-0.024 120.248-13.578 172.817-37.856l-2.56 1.060-19.217 76.544c-3.59 14.038-16.124 24.25-31.044 24.252h-239.992c0 0 0 0-0.001 0-14.915 0-27.447-10.204-30.995-24.013l-0.048-0.222-19.149-76.561c49.989 23.208 108.502 36.761 170.177 36.796h0.012z" />
<glyph unicode="&#xe92b;" glyph-name="Mask-Group--6" d="M576 192h-320c-17.669 0.010-31.99 14.331-32 31.999v210.757l41.387-41.387c5.836-6.093 14.037-9.879 23.123-9.879 17.673 0 32 14.327 32 32 0 9.086-3.787 17.287-9.868 23.112l-0.012 0.011-96 96c-5.788 5.792-13.787 9.374-22.622 9.374s-16.833-3.582-22.622-9.374l-96.017-95.983c-5.938-5.814-9.619-13.913-9.619-22.871 0-17.673 14.327-32 32-32 8.954 0 17.050 3.678 22.858 9.605l41.375 41.375v-210.739c0.058-52.996 43.004-95.942 95.994-96h320.023c17.673 0 32 14.327 32 32s-14.327 32-32 32v0zM448 704h320c17.669-0.010 31.99-14.331 32-31.999v-210.757l-41.37 41.37c-5.837 6.098-14.041 9.888-23.131 9.888-17.673 0-32-14.327-32-32 0-9.081 3.783-17.279 9.859-23.104l96.028-96.028c5.79-5.788 13.788-9.367 22.622-9.367s16.832 3.579 22.622 9.367l96 96.017c6.093 5.836 9.879 14.037 9.879 23.123 0 17.673-14.327 32-32 32-9.086 0-17.287-3.787-23.112-9.868l-0.011-0.012-41.387-41.387v210.756c-0.058 52.996-43.004 95.942-95.994 96h-320.006c-17.673 0-32-14.327-32-32s14.327-32 32-32v0zM911.36 138.086c10.418 15.127 16.64 33.846 16.64 54.018 0 53.019-42.981 96-96 96s-96-42.981-96-96c0-20.172 6.222-38.891 16.851-54.343l-0.211 0.324c-48.355-27.878-80.431-79.213-80.64-138.056v-0.030c0.019-17.658 14.339-31.966 32-31.966h256c17.661 0 31.981 14.307 32 31.964v0.002c-0.209 58.873-32.285 110.208-79.87 137.676l-0.77 0.41zM320 608.034c17.661 0 31.981 14.307 32 31.964v0.002c-0.209 58.873-32.285 110.208-79.87 137.676l-0.77 0.41c10.418 15.127 16.64 33.846 16.64 54.018 0 53.019-42.981 96-96 96s-96-42.981-96-96c0-20.172 6.222-38.891 16.851-54.343l-0.211 0.324c-48.355-27.878-80.431-79.213-80.64-138.056v-0.030c0.019-17.658 14.339-31.966 32-31.966v0z" />
<glyph unicode="&#xe92c;" glyph-name="Mask-Group--7" d="M832 416h-160c-17.673 0-32-14.327-32-32v0c0-106.039-85.961-192-192-192s-192 85.961-192 192c0 106.039 85.961 192 192 192v0c17.673 0 32 14.327 32 32v0 160c0 17.673-14.327 32-32 32v0c-229.75 0-416-186.25-416-416s186.25-416 416-416c229.75 0 416 186.25 416 416v0c0 17.673-14.327 32-32 32v0zM576 928c-17.673 0-32-14.327-32-32v0-160c0-17.673 14.327-32 32-32v0c105.992-0.116 191.884-86.008 192-191.989v-0.011c0-17.673 14.327-32 32-32v0h160c17.673 0 32 14.327 32 32v0c-0.243 229.653-186.348 415.758-415.977 416h-0.023z" />
<glyph unicode="&#xe92d;" glyph-name="Mask-Group--8" d="M832 928h-640c-17.673 0-32-14.327-32-32v0-896c0-17.673 14.327-32 32-32v0h640c17.673 0 32 14.327 32 32v0 896c0 17.673-14.327 32-32 32v0zM384 768h256c17.673 0 32-14.327 32-32s-14.327-32-32-32v0h-256c-17.673 0-32 14.327-32 32s14.327 32 32 32v0zM726.63 233.37l-128-128c-5.789-5.782-13.784-9.359-22.613-9.359-17.669 0-31.994 14.321-32 31.988v50.757l-73.387-73.387c-5.79-5.768-13.776-9.334-22.596-9.334-17.664 0-31.987 14.305-32.017 31.962v50.759l-73.387-73.387c-5.836-6.093-14.037-9.879-23.123-9.879-17.673 0-32 14.327-32 32 0 9.086 3.787 17.287 9.868 23.112l0.012 0.011 128 128c5.79 5.768 13.777 9.335 22.596 9.335 17.658 0 31.978-14.295 32.017-31.944v-50.777l73.387 73.387c5.79 5.768 13.776 9.334 22.596 9.334 17.664 0 31.987-14.305 32.017-31.962v-50.759l73.387 73.387c5.836 6.093 14.037 9.879 23.123 9.879 17.673 0 32-14.327 32-32 0-9.086-3.787-17.287-9.868-23.112l-0.012-0.011zM704 384h-384c-17.673 0-32 14.327-32 32s14.327 32 32 32v0h384c17.673 0 32-14.327 32-32s-14.327-32-32-32v0zM704 544h-384c-17.673 0-32 14.327-32 32s14.327 32 32 32v0h384c17.673 0 32-14.327 32-32s-14.327-32-32-32v0z" />
<glyph unicode="&#xe92e;" glyph-name="Mask-Group--9" d="M923.392 144.469l-76.8 128c-5.695 9.368-15.846 15.531-27.436 15.531-0.002 0-0.005 0-0.007 0h-152.729l-54.528 284.177c55.594 34.289 92.092 94.857 92.092 163.949 0 106.029-85.954 191.983-191.983 191.983s-191.983-85.954-191.983-191.983c0-69.092 36.498-129.659 91.265-163.474l0.827-0.475-54.528-284.177h-152.747c-11.587-0.004-21.733-6.165-27.346-15.389l-0.080-0.142-76.8-128c-2.852-4.693-4.54-10.367-4.54-16.435 0-17.665 14.306-31.988 31.964-32.017h768.003c17.665 0.023 31.977 14.349 31.977 32.017 0 6.075-1.692 11.755-4.631 16.594l0.080-0.142zM224-32h576c35.327 0.048 63.951 28.673 64 63.995v0.005h-704c0.048-35.327 28.673-63.951 63.995-64h0.005z" />
<glyph unicode="&#xe92f;" glyph-name="Mask-Group--10" d="M941.807 696.422c-1.229 26.931-1.229 52.651-1.229 78.37 0.004 0.195 0.006 0.424 0.006 0.654 0 19.926-16.153 36.079-36.079 36.079-0.224 0-0.448-0.002-0.671-0.006h0.034c-153.071 0-269.397 44.083-366.131 138.377-6.723 6.256-15.769 10.096-25.711 10.096s-18.988-3.84-25.734-10.118l0.023 0.021c-96.751-94.293-213.077-138.377-366.131-138.377-0.195 0.004-0.424 0.006-0.654 0.006-19.926 0-36.079-16.153-36.079-36.079 0-0.23 0.002-0.46 0.006-0.689l-0.001 0.034c0-25.719 0-51.422-1.229-78.37-4.915-257.143-12.254-609.809 417.553-757.965l12.237-2.441 12.237 2.441c428.595 148.156 422.468 499.593 417.553 757.965zM482.714 340.087c-6.836-6.015-15.838-9.713-25.702-9.796h-1.246c-10.311 0.192-19.488 4.883-25.678 12.187l-0.041 0.050-113.886 126.123 55.108 48.981 89.259-99.174 198.434 188.57 50.21-53.879z" />
<glyph unicode="&#xe930;" glyph-name="Mask-Group--11" d="M914.005 861.013h-13.995v42.001c0 16.57-13.433 30.003-30.003 30.003s-30.003-13.433-30.003-30.003v0-42.001h-119.996v42.001c0 16.57-13.433 30.003-30.003 30.003s-30.003-13.433-30.003-30.003v0-42.001h-119.996v42.001c0 16.57-13.433 30.003-30.003 30.003s-30.003-13.433-30.003-30.003v-42.001h-119.996v42.001c0 16.57-13.433 30.003-30.003 30.003s-30.003-13.433-30.003-30.003v0-42.001h-119.996v42.001c0 16.57-13.433 30.003-30.003 30.003s-30.003-13.433-30.003-30.003v0-42.001h-10.001c-60.723-0.078-109.927-49.287-109.995-110.005v-90h1024v89.993c-0.068 60.724-49.272 109.934-109.987 110.012h-0.007zM0 72.994c0.078-60.717 49.278-109.917 109.987-109.995h804.018c60.717 0.078 109.917 49.278 109.995 109.987v528.016h-1024zM842.001 131.021c0-16.57-13.433-30.003-30.003-30.003v0h-119.996c-16.57 0-30.003 13.433-30.003 30.003v0 123.921c0 16.57 13.433 30.003 30.003 30.003v0h119.996c16.57 0 30.003-13.433 30.003-30.003v0zM670.72 473.788c-5.586 5.454-9.050 13.060-9.050 21.474 0 16.57 13.433 30.003 30.003 30.003 8.415 0 16.020-3.464 21.469-9.044l38.799-38.799 38.793 38.793c5.454 5.586 13.060 9.050 21.474 9.050 16.57 0 30.003-13.433 30.003-30.003 0-8.415-3.464-16.020-9.044-21.469l-0.006-0.006-38.741-38.793 40.789-40.789c5.275-5.402 8.529-12.798 8.529-20.953 0-16.57-13.433-30.003-30.003-30.003-8.156 0-15.551 3.254-20.959 8.535l-40.783 40.783-40.789-40.789c-5.454-5.586-13.060-9.050-21.474-9.050-16.57 0-30.003 13.433-30.003 30.003 0 8.415 3.464 16.020 9.044 21.469l40.795 40.795zM430.711 473.788c-5.586 5.454-9.050 13.060-9.050 21.474 0 16.57 13.433 30.003 30.003 30.003 8.415 0 16.020-3.464 21.469-9.044l0.006-0.006 38.861-38.793 38.793 38.793c5.454 5.586 13.060 9.050 21.474 9.050 16.57 0 30.003-13.433 30.003-30.003 0-8.415-3.464-16.020-9.044-21.469l-38.799-38.799 40.789-40.789c5.275-5.402 8.529-12.798 8.529-20.953 0-16.57-13.433-30.003-30.003-30.003-8.156 0-15.551 3.254-20.959 8.535l-40.783 40.783-40.789-40.789c-5.402-5.275-12.798-8.529-20.953-8.529-16.57 0-30.003 13.433-30.003 30.003 0 8.156 3.254 15.551 8.535 20.959l40.783 40.783zM428.783 152.201l40.789 40.789-38.793 38.793c-5.586 5.454-9.050 13.060-9.050 21.474 0 16.57 13.433 30.003 30.003 30.003 8.415 0 16.020-3.464 21.469-9.044l38.799-38.799 38.793 38.793c5.454 5.586 13.060 9.050 21.474 9.050 16.57 0 30.003-13.433 30.003-30.003 0-8.415-3.464-16.020-9.044-21.469l-38.799-38.799 40.789-40.789c5.275-5.402 8.529-12.798 8.529-20.953 0-16.57-13.433-30.003-30.003-30.003-8.156 0-15.551 3.254-20.959 8.535l-40.783 40.783-40.789-40.789c-5.454-5.586-13.060-9.050-21.474-9.050-16.57 0-30.003 13.433-30.003 30.003 0 8.415 3.464 16.020 9.044 21.469l0.006 0.006zM181.999 495.002c0 16.57 13.433 30.003 30.003 30.003v0h119.996c16.57 0 30.003-13.433 30.003-30.003v0-124.006c0-16.57-13.433-30.003-30.003-30.003v0h-119.996c-16.57 0-30.003 13.433-30.003 30.003v0zM190.788 231.782c-5.586 5.454-9.050 13.060-9.050 21.474 0 16.57 13.433 30.003 30.003 30.003 8.415 0 16.020-3.464 21.469-9.044l38.799-38.799 38.793 38.793c5.434 5.44 12.944 8.805 21.239 8.805 16.579 0 30.019-13.44 30.019-30.019 0-8.283-3.355-15.783-8.78-21.214v0l-38.861-38.793 40.789-40.789c5.275-5.402 8.529-12.798 8.529-20.953 0-16.57-13.433-30.003-30.003-30.003-8.156 0-15.551 3.254-20.959 8.535l-40.783 40.783-40.789-40.789c-5.454-5.586-13.060-9.050-21.474-9.050-16.57 0-30.003 13.433-30.003 30.003 0 8.415 3.464 16.020 9.044 21.469l40.795 40.795zM722.005 225.007h60.006v-64h-60.006v64zM242.005 464.998h60.006v-64h-60.006v64z" />
<glyph unicode="&#xe931;" glyph-name="Mask-Group--12" d="M768 256.017c0.001 0.243 0.002 0.53 0.002 0.818 0 88.366-71.634 160-160 160s-160-71.634-160-160c0-52.164 24.963-98.498 63.596-127.707l0.402-0.292v-128.802c0.019-17.668 14.347-31.983 32.017-31.983 6.608 0 12.748 2.002 17.847 5.431l-0.115-0.073 46.251 30.839 46.251-30.839c4.988-3.366 11.134-5.374 17.749-5.374 17.672 0 31.999 14.326 32 31.998v0 128.802c38.903 29.272 63.839 75.298 64 127.155v0.026zM864 928h-704c-17.673 0-32-14.327-32-32v0-832c0-17.673 14.327-32 32-32v0h288v67.55c-39.575 40.368-64 95.715-64 156.767 0 123.712 100.288 224 224 224s224-100.288 224-224c0-61.052-24.425-116.4-64.036-156.804l0.036 0.037v-67.55h96c17.673 0 32 14.327 32 32v0 832c0 17.673-14.327 32-32 32v0zM704 576h-384c-17.673 0-32 14.327-32 32s14.327 32 32 32v0h384c17.673 0 32-14.327 32-32s-14.327-32-32-32v0zM704 736h-384c-17.673 0-32 14.327-32 32s14.327 32 32 32v0h384c17.673 0 32-14.327 32-32s-14.327-32-32-32v0z" />
<glyph unicode="&#xe932;" glyph-name="Mask-Group--13" d="M522.121 672.939c76.928 1.352 138.771 64.032 138.771 141.155 0 0.805-0.007 1.609-0.020 2.411l0.002-0.121c0.013 0.717 0.021 1.563 0.021 2.411 0 77.134-61.838 139.826-138.643 141.204l-0.129 0.002c-77.029-1.343-138.958-64.102-138.958-141.326 0-0.805 0.007-1.609 0.020-2.411l-0.002 0.121c-0.011-0.645-0.017-1.407-0.017-2.17 0-77.213 61.934-139.96 138.833-141.274l0.123-0.002zM768.239 551.219c-6.827 20.941-46.251 84.412-153.054 84.992l-209.050-0.546c-103.68 5.803-145.067-55.467-151.535-82.62 0 0-69.973-223.573-58.027-275.337 7.441-32.137 63.147-71.475 122.607-100.693l-79.002-241.015h557.756l-76.937 249.446c53.009 28.058 99.584 63.147 106.308 92.279 12.186 52.395-59.068 273.493-59.068 273.493zM428.612 304.862c-9.304-4.285-20.184-6.796-31.648-6.827h-0.011c-0.275-0.003-0.6-0.005-0.925-0.005-44.235 0-80.094 35.859-80.094 80.094s35.859 80.094 80.094 80.094c43.459 0 78.833-34.612 80.061-77.774l0.003-0.113c10.721 7.79 23.497 13.467 37.343 16.135l0.596 0.096v-0.171c4.187 0.867 8.999 1.364 13.926 1.364s9.739-0.497 14.388-1.442l-0.461 0.078c52.634-11.657 168.96-63.249 168.96-63.249-43.226-47.271-105.169-76.807-174.011-76.807-0.624 0-1.248 0.002-1.871 0.007l0.095-0.001c-2.97 0-5.854 0-8.533 0.188v0c-10.428 0.256-19.814 0.939-28.245 1.963-53.692 6.281-69.018 26.249-69.666 46.37z" />
<glyph unicode="&#xe933;" glyph-name="Mask-Group--14" d="M928 736h-832c-35.331-0.039-63.961-28.669-64-63.996v-448.004c0.039-35.331 28.669-63.961 63.996-64h832.004c35.331 0.039 63.961 28.669 64 63.996v448.004c-0.039 35.331-28.669 63.961-63.996 64h-0.004zM630.63 393.37l-128-128c-5.788-5.792-13.787-9.374-22.622-9.374s-16.833 3.582-22.622 9.374l-64 64c-6.093 5.836-9.879 14.037-9.879 23.123 0 17.673 14.327 32 32 32 9.086 0 17.287-3.787 23.112-9.868l0.011-0.012 41.37-41.37 105.37 105.37c5.836 6.093 14.037 9.879 23.123 9.879 17.673 0 32-14.327 32-32 0-9.086-3.787-17.287-9.868-23.112l-0.012-0.011zM736 544h-448c-17.673 0-32 14.327-32 32s14.327 32 32 32v0h448c17.673 0 32-14.327 32-32s-14.327-32-32-32v0z" />
<glyph unicode="&#xe934;" glyph-name="Mask-Group--15" d="M175.445 688.265c0.126-149.857 121.639-271.292 271.514-271.292 149.953 0 271.514 121.561 271.514 271.514s-121.561 271.514-271.514 271.514c-0.018 0-0.036 0-0.054 0h0.003c-149.925 0-271.463-121.538-271.463-271.462 0-0.096 0-0.192 0-0.288v0.015zM86.886 63.727c44.373-31.095 140.271-70.878 339.831-70.878 2.113-0.012 4.614-0.019 7.115-0.019 59.72 0 118.515 3.964 176.135 11.643l-6.747-0.735c-19.78 32.732-31.484 72.268-31.484 114.538 0 121.759 97.11 220.837 218.105 224.007l0.294 0.006c-16.242 34.734-34.753 64.642-56.258 92.093l0.774-1.026c-15.866 18.135-34.727 33.178-55.891 44.471l-1.060 0.516c-56.736-63.841-139.066-103.863-230.743-103.863-91.621 0-173.906 39.974-230.365 103.433l-0.272 0.311c-21.643-12.008-39.999-27.111-55.22-44.968l-0.229-0.276c-60.326-77.856-99.8-174.635-108.535-280.136l-0.128-1.925c-2.065-28.058 11.213-70.827 34.679-87.194zM790.101 299.844c-100.478 0-181.931-81.453-181.931-181.931s81.453-181.931 181.931-181.931c100.478 0 181.931 81.453 181.931 181.931v0c0 100.478-81.453 181.931-181.931 181.931v0zM879.906 84.446h-182.477c-0.179-0.005-0.389-0.009-0.599-0.009-11.622 0-21.043 9.421-21.043 21.043s9.421 21.043 21.043 21.043c0.211 0 0.421-0.003 0.63-0.009l-0.031 0.001h182.46c0.179 0.005 0.389 0.009 0.599 0.009 11.622 0 21.043-9.421 21.043-21.043s-9.421-21.043-21.043-21.043c-0.211 0-0.421 0.003-0.63 0.009l0.031-0.001z" />
<glyph unicode="&#xe935;" glyph-name="Mask-Group--16" d="M481.997 839.066c-119.963-6.877-227.659-54.41-310.678-128.896l0.474 0.418 128.102-128.085c26.827 9.806 57.8 15.476 90.098 15.476 33.009 0 64.635-5.924 93.872-16.766l-1.869 0.607zM598.46 499.439l242.33 221.013c-80.653 68.31-184.056 112.042-297.434 118.551l-1.352 0.062v-288.085c21.548-14.832 40.122-31.844 56.094-51.092l0.362-0.449zM0 327.953v-30.020h119.996v30.020c0.033 94.477 48.587 177.606 122.094 225.826l1.025 0.631-113.732 113.749c-80.291-89.495-129.384-208.408-129.384-338.789 0-0.499 0.001-0.997 0.002-1.496v0.077zM864.905 297.95h159.095v30.003c0 0.099 0 0.215 0 0.332 0 45.211-5.821 89.063-16.755 130.846l0.797-3.587zM512 296.96c-66.267-0.006-119.984-53.728-119.984-119.996 0-66.272 53.724-119.996 119.996-119.996s119.996 53.724 119.996 119.996c0 33.139-13.433 63.14-35.151 84.855v0c-21.598 21.707-51.493 35.141-84.526 35.141-0.116 0-0.232 0-0.348 0h0.018zM896.375 689.971l-366.012-333.943c84.792-8.931 151.552-75.65 160.478-159.641l0.068-0.786 333.090 366.78v127.59z" />
<glyph unicode="&#xe936;" glyph-name="Mask-Group--17" d="M512 800c-194.404 0-352-157.596-352-352s157.596-352 352-352c194.404 0 352 157.596 352 352v0c0 194.404-157.596 352-352 352v0zM576 416h-64c-17.673 0-32 14.327-32 32v0 128c0 17.673 14.327 32 32 32s32-14.327 32-32v0-96h32c17.673 0 32-14.327 32-32s-14.327-32-32-32v0zM512 32c-61.687 0.034-120.2 13.587-172.748 37.856l2.56-1.060 19.149-76.578c3.59-14.038 16.124-24.25 31.044-24.252h239.992c0 0 0 0 0.001 0 14.915 0 27.447 10.204 30.995 24.013l0.048 0.222 19.217 76.612c-49.984-23.206-108.491-36.759-170.159-36.796h-0.013zM512 864c61.71-0.024 120.248-13.578 172.817-37.856l-2.56 1.060-19.217 76.544c-3.59 14.038-16.124 24.25-31.044 24.252h-239.992c0 0 0 0-0.001 0-14.915 0-27.447-10.204-30.995-24.013l-0.048-0.222-19.149-76.561c49.989 23.208 108.502 36.761 170.177 36.796h0.012z" />
<glyph unicode="&#xe937;" glyph-name="Mask-Group-18" d="M481.997 839.066c-119.963-6.877-227.659-54.41-310.678-128.896l0.474 0.418 128.102-128.085c26.827 9.806 57.8 15.476 90.098 15.476 33.009 0 64.635-5.924 93.872-16.766l-1.869 0.607zM598.46 499.439l242.33 221.013c-80.653 68.31-184.056 112.042-297.434 118.551l-1.352 0.062v-288.085c21.548-14.832 40.122-31.844 56.094-51.092l0.362-0.449zM0 327.953v-30.020h119.996v30.020c0.033 94.477 48.587 177.606 122.094 225.826l1.025 0.631-113.732 113.749c-80.291-89.495-129.384-208.408-129.384-338.789 0-0.499 0.001-0.997 0.002-1.496v0.077zM864.905 297.95h159.095v30.003c0 0.099 0 0.215 0 0.332 0 45.211-5.821 89.063-16.755 130.846l0.797-3.587zM512 296.96c-66.267-0.006-119.984-53.728-119.984-119.996 0-66.272 53.724-119.996 119.996-119.996s119.996 53.724 119.996 119.996c0 33.139-13.433 63.14-35.151 84.855v0c-21.598 21.707-51.493 35.141-84.526 35.141-0.116 0-0.232 0-0.348 0h0.018zM896.375 689.971l-366.012-333.943c84.792-8.931 151.552-75.65 160.478-159.641l0.068-0.786 333.090 366.78v127.59z" />
<glyph unicode="&#xe938;" glyph-name="Mask-Group--18" d="M438.886 960c-0.093 0.001-0.203 0.001-0.313 0.001-9.983 0-18.994-4.161-25.394-10.843l-0.012-0.013c-6.695-6.409-10.856-15.418-10.856-25.399 0-0.113 0.001-0.225 0.002-0.338v0.017-237.722c0-20.199-16.375-36.574-36.574-36.574s-36.574 16.375-36.574 36.574v0 237.722c0.001 0.090 0.001 0.197 0.001 0.304 0 9.989-4.168 19.005-10.86 25.403l-0.013 0.013c-6.521 6.714-15.634 10.88-25.719 10.88s-19.198-4.166-25.711-10.871l-0.008-0.009c-6.695-6.412-10.856-15.423-10.856-25.406 0-0.11 0.001-0.22 0.002-0.33v0.017-237.722c0-0.063 0.001-0.138 0.001-0.212 0-20.086-16.283-36.369-36.369-36.369-10.147 0-19.323 4.155-25.92 10.857l-0.005 0.005c-6.695 6.406-10.856 15.413-10.856 25.392 0 0.115 0.001 0.23 0.002 0.345v-0.018 237.722c0.001 0.095 0.001 0.208 0.001 0.321 0 9.981-4.161 18.99-10.843 25.387l-0.013 0.012c-6.521 6.714-15.634 10.88-25.719 10.88s-19.198-4.166-25.711-10.871l-0.008-0.009c-6.695-6.412-10.856-15.423-10.856-25.406 0-0.11 0.001-0.22 0.002-0.33v0.017-365.722c0.101-47.45 30.227-87.837 72.383-103.181l0.765-0.243v-445.133c-0.002-0.183-0.003-0.4-0.003-0.617 0-19.964 8.322-37.984 21.686-50.781l0.026-0.024c12.822-13.4 30.849-21.729 50.821-21.729 0.217 0 0.434 0.001 0.651 0.003h73.115c40.168 0.568 72.579 32.98 73.147 73.094l0.001 0.054v445.15c42.918 15.591 73.041 55.976 73.148 103.411v365.718c0.001 0.091 0.001 0.198 0.001 0.306 0 9.985-4.161 18.999-10.843 25.401l-0.013 0.012c-6.406 6.695-15.413 10.856-25.392 10.856-0.109 0-0.218 0-0.328-0.001h0.017zM903.424 949.146c-6.412 6.695-15.423 10.856-25.406 10.856-0.11 0-0.22-0.001-0.33-0.002h-146.261c-0.745 0.011-1.623 0.018-2.504 0.018-49.693 0-94.578-20.586-126.592-53.694l-0.047-0.049c-33.158-32.064-53.744-76.952-53.744-126.647 0-0.878 0.006-1.754 0.019-2.629l-0.002 0.132v-457.131c0.133-10.050 8.245-18.163 18.283-18.295h128.013v-292.574c0.578-40.16 32.986-72.563 73.094-73.13l0.054-0.001h73.131c40.169 0.559 72.587 32.964 73.164 73.076l0.001 0.055v914.295c0.001 0.082 0.001 0.179 0.001 0.275 0 9.998-4.167 19.023-10.86 25.432l-0.013 0.012z" />
<glyph unicode="&#xe939;" glyph-name="Mask-Group-19" d="M512 800c-194.404 0-352-157.596-352-352s157.596-352 352-352c194.404 0 352 157.596 352 352v0c0 194.404-157.596 352-352 352v0zM576 416h-64c-17.673 0-32 14.327-32 32v0 128c0 17.673 14.327 32 32 32s32-14.327 32-32v0-96h32c17.673 0 32-14.327 32-32s-14.327-32-32-32v0zM512 32c-61.687 0.034-120.2 13.587-172.748 37.856l2.56-1.060 19.149-76.578c3.59-14.038 16.124-24.25 31.044-24.252h239.992c0 0 0 0 0.001 0 14.915 0 27.447 10.204 30.995 24.013l0.048 0.222 19.217 76.612c-49.984-23.206-108.491-36.759-170.159-36.796h-0.013zM512 864c61.71-0.024 120.248-13.578 172.817-37.856l-2.56 1.060-19.217 76.544c-3.59 14.038-16.124 24.25-31.044 24.252h-239.992c0 0 0 0-0.001 0-14.915 0-27.447-10.204-30.995-24.013l-0.048-0.222-19.149-76.561c49.989 23.208 108.502 36.761 170.177 36.796h0.012z" />
<glyph unicode="&#xe93a;" glyph-name="Mask-Group--19" d="M235.759 482.935l16.128-73.387 80.043 38.366h1.212v-333.005h95.693v419.84h-82.039zM737.536 360.073c-29.272 19.070-65.096 30.412-103.568 30.412-2.374 0-4.738-0.043-7.091-0.129l0.34 0.010c-1.166 0.027-2.54 0.042-3.917 0.042-8.191 0-16.258-0.536-24.166-1.575l0.93 0.1 9.028 64.358h163.362v81.459h-231.765l-27.716-220.279c15.689 2.408 33.789 3.783 52.21 3.783 1.601 0 3.2-0.010 4.796-0.031l-0.242 0.002c83.917 0 118.101-26.539 118.101-69.769 0-44.527-43.281-63.898-83.9-63.898-34.41 0.415-66.953 7.963-96.362 21.231l1.522-0.614-17.442-73.574c32.474-15.135 70.499-23.966 110.588-23.966 2.192 0 4.378 0.026 6.557 0.079l-0.323-0.006c112.93 0 180.070 69.052 180.070 147.115 0.138 2.149 0.217 4.66 0.217 7.19 0 40.443-20.097 76.193-50.848 97.807l-0.381 0.254zM903.595 896.461v-51.2c-0.172-51.868-42.037-93.901-93.825-94.344h-4.838c-51.972 0.355-94.012 42.377-94.396 94.308v58.064h-102.775v-58.027c-0.365-51.964-42.397-93.989-94.328-94.344h-4.779c-51.921 0.328-93.906 42.403-94.088 94.327v58.044h-104.499v-58.027c0.001-0.143 0.001-0.312 0.001-0.482 0-51.542-41.541-93.381-92.969-93.862h-4.825c-51.762 0.425-93.559 42.485-93.559 94.307 0 0.013 0 0.026 0 0.039v-0.002 50.432c-60.17-20.222-102.742-76.11-102.742-141.941 0-0.199 0-0.398 0.001-0.596v0.031-667.699c0-0.036 0-0.078 0-0.12 0-82.493 66.874-149.367 149.367-149.367 0.174 0 0.348 0 0.522 0.001h692.487c0.137 0 0.299-0.001 0.461-0.001 82.399 0 149.197 66.798 149.197 149.197 0 0.102 0 0.205 0 0.307v-0.016 667.682c0 0.048 0 0.106 0 0.163 0 66.614-43.335 123.108-103.351 142.827l-1.062 0.302zM933.734 99.26c0-0.076 0-0.166 0-0.256 0-47.858-38.738-86.667-86.568-86.784h-670.031c-47.907 0.117-86.699 38.98-86.699 86.903 0 0.048 0 0.096 0 0.144v-0.008 474.351c0 0.016 0 0.034 0 0.053 0 32.321 26.201 58.522 58.522 58.522 0.162 0 0.324-0.001 0.486-0.002h725.445c0.132 0.001 0.288 0.002 0.444 0.002 32.255 0 58.402-26.148 58.402-58.402 0-0.061 0-0.121 0-0.182v0.009-474.351zM212.361 797.013h4.762c0.123-0.001 0.269-0.002 0.415-0.002 14.549 0 27.592 6.444 36.432 16.633l0.051 0.060c7.284 8.329 11.726 19.304 11.726 31.317 0 0.096 0 0.192-0.001 0.288v-0.015 66.372c0.001 0.098 0.001 0.215 0.001 0.331 0 13.27-5.309 25.301-13.918 34.083l0.008-0.008c-0.085 0-0.085 0.171-0.154 0.239s-0.085-0.273-0.137-0.205c-8.74 8.591-20.735 13.895-33.969 13.895-0.172 0-0.344-0.001-0.515-0.003h-4.736c-0.152 0.002-0.332 0.003-0.512 0.003-13.234 0-25.231-5.297-33.987-13.885l0.008 0.008s0 0-0.137 0-0.29 0-0.358-0.119c-8.793-8.789-14.24-20.925-14.268-34.333v-66.394c0.021-12.134 4.546-23.208 11.992-31.642l-0.045 0.052c8.988-10.245 22.106-16.678 36.726-16.678 0.216 0 0.432 0.001 0.648 0.004h-0.033zM480.649 804.796c0.085 0 0.341-0.119 0.41-0.154s0.41 0.171 0.512 0.085c7.452-4.861 16.574-7.753 26.371-7.753 0.239 0 0.478 0.002 0.716 0.005h4.726c0.246-0.005 0.537-0.007 0.828-0.007 8.164 0 15.853 2.030 22.591 5.612l-0.261-0.126c0.085 0 0.137-0.137 0.222-0.085s0 0.085 0.137 0.205c14.917 8.469 24.816 24.246 24.816 42.336 0 0.116 0 0.232-0.001 0.348v-0.018 66.441c0.001 0.126 0.002 0.275 0.002 0.424 0 15.688-7.425 29.643-18.952 38.541l-0.113 0.084c-0.119 0 0 0.154-0.119 0.222l0.085-0.375c-7.88 5.876-17.809 9.408-28.562 9.408-0.231 0-0.461-0.002-0.691-0.005h-4.727c-0.173 0.002-0.377 0.003-0.581 0.003-12.434 0-23.774-4.683-32.352-12.383l0.045 0.040s0 0.154 0 0.154-0.529-0.085-0.631-0.171c-9.816-8.885-16-21.626-16.145-35.814v-66.603c0.13-16.763 8.621-31.514 21.505-40.304l0.17-0.109zM804.898 796.996h4.762c0.159-0.002 0.347-0.003 0.536-0.003 14.712 0 27.921 6.434 36.966 16.642l0.045 0.052c7.487 8.358 12.102 19.424 12.22 31.566v66.396c-0.191 18.479-10.478 34.511-25.601 42.862l-0.255 0.129c-0.169 0.047-0.305 0.093-0.438 0.147l0.028-0.010c-1.229 0.649-2.526 1.229-3.772 1.707-0.247 0.085-0.455 0.177-0.655 0.284l0.023-0.011-0.905 0.427c-0.461 0.171-0.887 0.358-1.365 0.512l-0.7 0.256c-0.495 0.171-1.058 0-1.536 0.154-4.050 1.21-8.704 1.906-13.52 1.906-0.371 0-0.741-0.004-1.109-0.012l0.055 0.001h-4.762c-0.658 0.033-1.428 0.052-2.202 0.052-1.725 0-3.428-0.093-5.105-0.275l0.208 0.018c-23.476-3.59-41.251-23.639-41.251-47.841 0-0.083 0-0.166 0.001-0.249v0.013-66.475c-0.001-0.138-0.002-0.301-0.002-0.464 0-26.392 21.395-47.787 47.787-47.787 0.193 0 0.385 0.001 0.578 0.003h-0.029z" />
<glyph unicode="&#xe93b;" glyph-name="Mask-Group-20" d="M438.886 960c-0.093 0.001-0.203 0.001-0.313 0.001-9.983 0-18.994-4.161-25.394-10.843l-0.012-0.013c-6.695-6.409-10.856-15.418-10.856-25.399 0-0.113 0.001-0.225 0.002-0.338v0.017-237.722c0-20.199-16.375-36.574-36.574-36.574s-36.574 16.375-36.574 36.574v0 237.722c0.001 0.090 0.001 0.197 0.001 0.304 0 9.989-4.168 19.005-10.86 25.403l-0.013 0.013c-6.521 6.714-15.634 10.88-25.719 10.88s-19.198-4.166-25.711-10.871l-0.008-0.009c-6.695-6.412-10.856-15.423-10.856-25.406 0-0.11 0.001-0.22 0.002-0.33v0.017-237.722c0-0.063 0.001-0.138 0.001-0.212 0-20.086-16.283-36.369-36.369-36.369-10.147 0-19.323 4.155-25.92 10.857l-0.005 0.005c-6.695 6.406-10.856 15.413-10.856 25.392 0 0.115 0.001 0.23 0.002 0.345v-0.018 237.722c0.001 0.095 0.001 0.208 0.001 0.321 0 9.981-4.161 18.99-10.843 25.387l-0.013 0.012c-6.521 6.714-15.634 10.88-25.719 10.88s-19.198-4.166-25.711-10.871l-0.008-0.009c-6.695-6.412-10.856-15.423-10.856-25.406 0-0.11 0.001-0.22 0.002-0.33v0.017-365.722c0.101-47.45 30.227-87.837 72.383-103.181l0.765-0.243v-445.133c-0.002-0.183-0.003-0.4-0.003-0.617 0-19.964 8.322-37.984 21.686-50.781l0.026-0.024c12.822-13.4 30.849-21.729 50.821-21.729 0.217 0 0.434 0.001 0.651 0.003h73.115c40.168 0.568 72.579 32.98 73.147 73.094l0.001 0.054v445.15c42.918 15.591 73.041 55.976 73.148 103.411v365.718c0.001 0.091 0.001 0.198 0.001 0.306 0 9.985-4.161 18.999-10.843 25.401l-0.013 0.012c-6.406 6.695-15.413 10.856-25.392 10.856-0.109 0-0.218 0-0.328-0.001h0.017zM903.424 949.146c-6.412 6.695-15.423 10.856-25.406 10.856-0.11 0-0.22-0.001-0.33-0.002h-146.261c-0.745 0.011-1.623 0.018-2.504 0.018-49.693 0-94.578-20.586-126.592-53.694l-0.047-0.049c-33.158-32.064-53.744-76.952-53.744-126.647 0-0.878 0.006-1.754 0.019-2.629l-0.002 0.132v-457.131c0.133-10.050 8.245-18.163 18.283-18.295h128.013v-292.574c0.578-40.16 32.986-72.563 73.094-73.13l0.054-0.001h73.131c40.169 0.559 72.587 32.964 73.164 73.076l0.001 0.055v914.295c0.001 0.082 0.001 0.179 0.001 0.275 0 9.998-4.167 19.023-10.86 25.432l-0.013 0.012z" />
<glyph unicode="&#xe93c;" glyph-name="Mask-Group--20" d="M928 736h-320c17.673 0 32 14.327 32 32s-14.327 32-32 32v0h-192c-17.673 0-32-14.327-32-32s14.327-32 32-32v0h-320c-35.331-0.039-63.961-28.669-64-63.996v-512.004c0.039-35.331 28.669-63.961 63.996-64h832.004c35.331 0.039 63.961 28.669 64 63.996v512.004c-0.039 35.331-28.669 63.961-63.996 64h-0.004zM416 256h-256c-17.673 0-32 14.327-32 32v0c0.209 58.873 32.285 110.208 79.87 137.676l0.77 0.41c-10.418 15.127-16.64 33.846-16.64 54.018 0 53.019 42.981 96 96 96s96-42.981 96-96c0-20.172-6.222-38.891-16.851-54.343l0.211 0.324c48.355-27.878 80.431-79.213 80.64-138.056v-0.030c0-17.673-14.327-32-32-32v0zM854.613 457.387l-128-128c-5.788-5.792-13.787-9.374-22.622-9.374s-16.833 3.582-22.622 9.374l-64 64c-6.093 5.836-9.879 14.037-9.879 23.123 0 17.673 14.327 32 32 32 9.086 0 17.287-3.787 23.112-9.868l0.011-0.012 41.37-41.37 105.404 105.37c5.836 6.093 14.037 9.879 23.123 9.879 17.673 0 32-14.327 32-32 0-9.086-3.787-17.287-9.868-23.112l-0.012-0.011z" />
<glyph unicode="&#xe93d;" glyph-name="Mask-Group-21" d="M235.759 482.935l16.128-73.387 80.043 38.366h1.212v-333.005h95.693v419.84h-82.039zM737.536 360.073c-29.272 19.070-65.096 30.412-103.568 30.412-2.374 0-4.738-0.043-7.091-0.129l0.34 0.010c-1.166 0.027-2.54 0.042-3.917 0.042-8.191 0-16.258-0.536-24.166-1.575l0.93 0.1 9.028 64.358h163.362v81.459h-231.765l-27.716-220.279c15.689 2.408 33.789 3.783 52.21 3.783 1.601 0 3.2-0.010 4.796-0.031l-0.242 0.002c83.917 0 118.101-26.539 118.101-69.769 0-44.527-43.281-63.898-83.9-63.898-34.41 0.415-66.953 7.963-96.362 21.231l1.522-0.614-17.442-73.574c32.474-15.135 70.499-23.966 110.588-23.966 2.192 0 4.378 0.026 6.557 0.079l-0.323-0.006c112.93 0 180.070 69.052 180.070 147.115 0.138 2.149 0.217 4.66 0.217 7.19 0 40.443-20.097 76.193-50.848 97.807l-0.381 0.254zM903.595 896.461v-51.2c-0.172-51.868-42.037-93.901-93.825-94.344h-4.838c-51.972 0.355-94.012 42.377-94.396 94.308v58.064h-102.775v-58.027c-0.365-51.964-42.397-93.989-94.328-94.344h-4.779c-51.921 0.328-93.906 42.403-94.088 94.327v58.044h-104.499v-58.027c0.001-0.143 0.001-0.312 0.001-0.482 0-51.542-41.541-93.381-92.969-93.862h-4.825c-51.762 0.425-93.559 42.485-93.559 94.307 0 0.013 0 0.026 0 0.039v-0.002 50.432c-60.17-20.222-102.742-76.11-102.742-141.941 0-0.199 0-0.398 0.001-0.596v0.031-667.699c0-0.036 0-0.078 0-0.12 0-82.493 66.874-149.367 149.367-149.367 0.174 0 0.348 0 0.522 0.001h692.487c0.137 0 0.299-0.001 0.461-0.001 82.399 0 149.197 66.798 149.197 149.197 0 0.102 0 0.205 0 0.307v-0.016 667.682c0 0.048 0 0.106 0 0.163 0 66.614-43.335 123.108-103.351 142.827l-1.062 0.302zM933.734 99.26c0-0.076 0-0.166 0-0.256 0-47.858-38.738-86.667-86.568-86.784h-670.031c-47.907 0.117-86.699 38.98-86.699 86.903 0 0.048 0 0.096 0 0.144v-0.008 474.351c0 0.016 0 0.034 0 0.053 0 32.321 26.201 58.522 58.522 58.522 0.162 0 0.324-0.001 0.486-0.002h725.445c0.132 0.001 0.288 0.002 0.444 0.002 32.255 0 58.402-26.148 58.402-58.402 0-0.061 0-0.121 0-0.182v0.009-474.351zM212.361 797.013h4.762c0.123-0.001 0.269-0.002 0.415-0.002 14.549 0 27.592 6.444 36.432 16.633l0.051 0.060c7.284 8.329 11.726 19.304 11.726 31.317 0 0.096 0 0.192-0.001 0.288v-0.015 66.372c0.001 0.098 0.001 0.215 0.001 0.331 0 13.27-5.309 25.301-13.918 34.083l0.008-0.008c-0.085 0-0.085 0.171-0.154 0.239s-0.085-0.273-0.137-0.205c-8.74 8.591-20.735 13.895-33.969 13.895-0.172 0-0.344-0.001-0.515-0.003h-4.736c-0.152 0.002-0.332 0.003-0.512 0.003-13.234 0-25.231-5.297-33.987-13.885l0.008 0.008s0 0-0.137 0-0.29 0-0.358-0.119c-8.793-8.789-14.24-20.925-14.268-34.333v-66.394c0.021-12.134 4.546-23.208 11.992-31.642l-0.045 0.052c8.988-10.245 22.106-16.678 36.726-16.678 0.216 0 0.432 0.001 0.648 0.004h-0.033zM480.649 804.796c0.085 0 0.341-0.119 0.41-0.154s0.41 0.171 0.512 0.085c7.452-4.861 16.574-7.753 26.371-7.753 0.239 0 0.478 0.002 0.716 0.005h4.726c0.246-0.005 0.537-0.007 0.828-0.007 8.164 0 15.853 2.030 22.591 5.612l-0.261-0.126c0.085 0 0.137-0.137 0.222-0.085s0 0.085 0.137 0.205c14.917 8.469 24.816 24.246 24.816 42.336 0 0.116 0 0.232-0.001 0.348v-0.018 66.441c0.001 0.126 0.002 0.275 0.002 0.424 0 15.688-7.425 29.643-18.952 38.541l-0.113 0.084c-0.119 0 0 0.154-0.119 0.222l0.085-0.375c-7.88 5.876-17.809 9.408-28.562 9.408-0.231 0-0.461-0.002-0.691-0.005h-4.727c-0.173 0.002-0.377 0.003-0.581 0.003-12.434 0-23.774-4.683-32.352-12.383l0.045 0.040s0 0.154 0 0.154-0.529-0.085-0.631-0.171c-9.816-8.885-16-21.626-16.145-35.814v-66.603c0.13-16.763 8.621-31.514 21.505-40.304l0.17-0.109zM804.898 796.996h4.762c0.159-0.002 0.347-0.003 0.536-0.003 14.712 0 27.921 6.434 36.966 16.642l0.045 0.052c7.487 8.358 12.102 19.424 12.22 31.566v66.396c-0.191 18.479-10.478 34.511-25.601 42.862l-0.255 0.129c-0.169 0.047-0.305 0.093-0.438 0.147l0.028-0.010c-1.229 0.649-2.526 1.229-3.772 1.707-0.247 0.085-0.455 0.177-0.655 0.284l0.023-0.011-0.905 0.427c-0.461 0.171-0.887 0.358-1.365 0.512l-0.7 0.256c-0.495 0.171-1.058 0-1.536 0.154-4.050 1.21-8.704 1.906-13.52 1.906-0.371 0-0.741-0.004-1.109-0.012l0.055 0.001h-4.762c-0.658 0.033-1.428 0.052-2.202 0.052-1.725 0-3.428-0.093-5.105-0.275l0.208 0.018c-23.476-3.59-41.251-23.639-41.251-47.841 0-0.083 0-0.166 0.001-0.249v0.013-66.475c-0.001-0.138-0.002-0.301-0.002-0.464 0-26.392 21.395-47.787 47.787-47.787 0.193 0 0.385 0.001 0.578 0.003h-0.029z" />
<glyph unicode="&#xe93e;" glyph-name="Mask-Group--21" d="M576 192h-320c-17.669 0.010-31.99 14.331-32 31.999v210.757l41.387-41.387c5.836-6.093 14.037-9.879 23.123-9.879 17.673 0 32 14.327 32 32 0 9.086-3.787 17.287-9.868 23.112l-0.012 0.011-96 96c-5.788 5.792-13.787 9.374-22.622 9.374s-16.833-3.582-22.622-9.374l-96.017-95.983c-5.938-5.814-9.619-13.913-9.619-22.871 0-17.673 14.327-32 32-32 8.954 0 17.050 3.678 22.858 9.605l41.375 41.375v-210.739c0.058-52.996 43.004-95.942 95.994-96h320.023c17.673 0 32 14.327 32 32s-14.327 32-32 32v0zM448 704h320c17.669-0.010 31.99-14.331 32-31.999v-210.757l-41.37 41.37c-5.837 6.098-14.041 9.888-23.131 9.888-17.673 0-32-14.327-32-32 0-9.081 3.783-17.279 9.859-23.104l96.028-96.028c5.79-5.788 13.788-9.367 22.622-9.367s16.832 3.579 22.622 9.367l96 96.017c6.093 5.836 9.879 14.037 9.879 23.123 0 17.673-14.327 32-32 32-9.086 0-17.287-3.787-23.112-9.868l-0.011-0.012-41.387-41.387v210.756c-0.058 52.996-43.004 95.942-95.994 96h-320.006c-17.673 0-32-14.327-32-32s14.327-32 32-32v0zM911.36 138.086c10.418 15.127 16.64 33.846 16.64 54.018 0 53.019-42.981 96-96 96s-96-42.981-96-96c0-20.172 6.222-38.891 16.851-54.343l-0.211 0.324c-48.355-27.878-80.431-79.213-80.64-138.056v-0.030c0.019-17.658 14.339-31.966 32-31.966h256c17.661 0 31.981 14.307 32 31.964v0.002c-0.209 58.873-32.285 110.208-79.87 137.676l-0.77 0.41zM320 608.034c17.661 0 31.981 14.307 32 31.964v0.002c-0.209 58.873-32.285 110.208-79.87 137.676l-0.77 0.41c10.418 15.127 16.64 33.846 16.64 54.018 0 53.019-42.981 96-96 96s-96-42.981-96-96c0-20.172 6.222-38.891 16.851-54.343l-0.211 0.324c-48.355-27.878-80.431-79.213-80.64-138.056v-0.030c0.019-17.658 14.339-31.966 32-31.966v0z" />
<glyph unicode="&#xe93f;" glyph-name="Mask-Group-22" d="M928 736h-320c17.673 0 32 14.327 32 32s-14.327 32-32 32v0h-192c-17.673 0-32-14.327-32-32s14.327-32 32-32v0h-320c-35.331-0.039-63.961-28.669-64-63.996v-512.004c0.039-35.331 28.669-63.961 63.996-64h832.004c35.331 0.039 63.961 28.669 64 63.996v512.004c-0.039 35.331-28.669 63.961-63.996 64h-0.004zM416 256h-256c-17.673 0-32 14.327-32 32v0c0.209 58.873 32.285 110.208 79.87 137.676l0.77 0.41c-10.418 15.127-16.64 33.846-16.64 54.018 0 53.019 42.981 96 96 96s96-42.981 96-96c0-20.172-6.222-38.891-16.851-54.343l0.211 0.324c48.355-27.878 80.431-79.213 80.64-138.056v-0.030c0-17.673-14.327-32-32-32v0zM854.613 457.387l-128-128c-5.788-5.792-13.787-9.374-22.622-9.374s-16.833 3.582-22.622 9.374l-64 64c-6.093 5.836-9.879 14.037-9.879 23.123 0 17.673 14.327 32 32 32 9.086 0 17.287-3.787 23.112-9.868l0.011-0.012 41.37-41.37 105.404 105.37c5.836 6.093 14.037 9.879 23.123 9.879 17.673 0 32-14.327 32-32 0-9.086-3.787-17.287-9.868-23.112l-0.012-0.011z" />
<glyph unicode="&#xe940;" glyph-name="Mask-Group--22" d="M832 416h-160c-17.673 0-32-14.327-32-32v0c0-106.039-85.961-192-192-192s-192 85.961-192 192c0 106.039 85.961 192 192 192v0c17.673 0 32 14.327 32 32v0 160c0 17.673-14.327 32-32 32v0c-229.75 0-416-186.25-416-416s186.25-416 416-416c229.75 0 416 186.25 416 416v0c0 17.673-14.327 32-32 32v0zM576 928c-17.673 0-32-14.327-32-32v0-160c0-17.673 14.327-32 32-32v0c105.992-0.116 191.884-86.008 192-191.989v-0.011c0-17.673 14.327-32 32-32v0h160c17.673 0 32 14.327 32 32v0c-0.243 229.653-186.348 415.758-415.977 416h-0.023z" />
<glyph unicode="&#xe941;" glyph-name="Mask-Group-23" d="M576 192h-320c-17.669 0.010-31.99 14.331-32 31.999v210.757l41.387-41.387c5.836-6.093 14.037-9.879 23.123-9.879 17.673 0 32 14.327 32 32 0 9.086-3.787 17.287-9.868 23.112l-0.012 0.011-96 96c-5.788 5.792-13.787 9.374-22.622 9.374s-16.833-3.582-22.622-9.374l-96.017-95.983c-5.938-5.814-9.619-13.913-9.619-22.871 0-17.673 14.327-32 32-32 8.954 0 17.050 3.678 22.858 9.605l41.375 41.375v-210.739c0.058-52.996 43.004-95.942 95.994-96h320.023c17.673 0 32 14.327 32 32s-14.327 32-32 32v0zM448 704h320c17.669-0.010 31.99-14.331 32-31.999v-210.757l-41.37 41.37c-5.837 6.098-14.041 9.888-23.131 9.888-17.673 0-32-14.327-32-32 0-9.081 3.783-17.279 9.859-23.104l96.028-96.028c5.79-5.788 13.788-9.367 22.622-9.367s16.832 3.579 22.622 9.367l96 96.017c6.093 5.836 9.879 14.037 9.879 23.123 0 17.673-14.327 32-32 32-9.086 0-17.287-3.787-23.112-9.868l-0.011-0.012-41.387-41.387v210.756c-0.058 52.996-43.004 95.942-95.994 96h-320.006c-17.673 0-32-14.327-32-32s14.327-32 32-32v0zM911.36 138.086c10.418 15.127 16.64 33.846 16.64 54.018 0 53.019-42.981 96-96 96s-96-42.981-96-96c0-20.172 6.222-38.891 16.851-54.343l-0.211 0.324c-48.355-27.878-80.431-79.213-80.64-138.056v-0.030c0.019-17.658 14.339-31.966 32-31.966h256c17.661 0 31.981 14.307 32 31.964v0.002c-0.209 58.873-32.285 110.208-79.87 137.676l-0.77 0.41zM320 608.034c17.661 0 31.981 14.307 32 31.964v0.002c-0.209 58.873-32.285 110.208-79.87 137.676l-0.77 0.41c10.418 15.127 16.64 33.846 16.64 54.018 0 53.019-42.981 96-96 96s-96-42.981-96-96c0-20.172 6.222-38.891 16.851-54.343l-0.211 0.324c-48.355-27.878-80.431-79.213-80.64-138.056v-0.030c0.019-17.658 14.339-31.966 32-31.966v0z" />
<glyph unicode="&#xe942;" glyph-name="Mask-Group--23" d="M832 928h-640c-17.673 0-32-14.327-32-32v0-896c0-17.673 14.327-32 32-32v0h640c17.673 0 32 14.327 32 32v0 896c0 17.673-14.327 32-32 32v0zM384 768h256c17.673 0 32-14.327 32-32s-14.327-32-32-32v0h-256c-17.673 0-32 14.327-32 32s14.327 32 32 32v0zM726.63 233.37l-128-128c-5.789-5.782-13.784-9.359-22.613-9.359-17.669 0-31.994 14.321-32 31.988v50.757l-73.387-73.387c-5.79-5.768-13.776-9.334-22.596-9.334-17.664 0-31.987 14.305-32.017 31.962v50.759l-73.387-73.387c-5.836-6.093-14.037-9.879-23.123-9.879-17.673 0-32 14.327-32 32 0 9.086 3.787 17.287 9.868 23.112l0.012 0.011 128 128c5.79 5.768 13.777 9.335 22.596 9.335 17.658 0 31.978-14.295 32.017-31.944v-50.777l73.387 73.387c5.79 5.768 13.776 9.334 22.596 9.334 17.664 0 31.987-14.305 32.017-31.962v-50.759l73.387 73.387c5.836 6.093 14.037 9.879 23.123 9.879 17.673 0 32-14.327 32-32 0-9.086-3.787-17.287-9.868-23.112l-0.012-0.011zM704 384h-384c-17.673 0-32 14.327-32 32s14.327 32 32 32v0h384c17.673 0 32-14.327 32-32s-14.327-32-32-32v0zM704 544h-384c-17.673 0-32 14.327-32 32s14.327 32 32 32v0h384c17.673 0 32-14.327 32-32s-14.327-32-32-32v0z" />
<glyph unicode="&#xe943;" glyph-name="Mask-Group-24" d="M832 416h-160c-17.673 0-32-14.327-32-32v0c0-106.039-85.961-192-192-192s-192 85.961-192 192c0 106.039 85.961 192 192 192v0c17.673 0 32 14.327 32 32v0 160c0 17.673-14.327 32-32 32v0c-229.75 0-416-186.25-416-416s186.25-416 416-416c229.75 0 416 186.25 416 416v0c0 17.673-14.327 32-32 32v0zM576 928c-17.673 0-32-14.327-32-32v0-160c0-17.673 14.327-32 32-32v0c105.992-0.116 191.884-86.008 192-191.989v-0.011c0-17.673 14.327-32 32-32v0h160c17.673 0 32 14.327 32 32v0c-0.243 229.653-186.348 415.758-415.977 416h-0.023z" />
<glyph unicode="&#xe944;" glyph-name="Mask-Group--24" d="M923.392 144.469l-76.8 128c-5.695 9.368-15.846 15.531-27.436 15.531-0.002 0-0.005 0-0.007 0h-152.729l-54.528 284.177c55.594 34.289 92.092 94.857 92.092 163.949 0 106.029-85.954 191.983-191.983 191.983s-191.983-85.954-191.983-191.983c0-69.092 36.498-129.659 91.265-163.474l0.827-0.475-54.528-284.177h-152.747c-11.587-0.004-21.733-6.165-27.346-15.389l-0.080-0.142-76.8-128c-2.852-4.693-4.54-10.367-4.54-16.435 0-17.665 14.306-31.988 31.964-32.017h768.003c17.665 0.023 31.977 14.349 31.977 32.017 0 6.075-1.692 11.755-4.631 16.594l0.080-0.142zM224-32h576c35.327 0.048 63.951 28.673 64 63.995v0.005h-704c0.048-35.327 28.673-63.951 63.995-64h0.005z" />
<glyph unicode="&#xe945;" glyph-name="Mask-Group-25" d="M832 928h-640c-17.673 0-32-14.327-32-32v0-896c0-17.673 14.327-32 32-32v0h640c17.673 0 32 14.327 32 32v0 896c0 17.673-14.327 32-32 32v0zM384 768h256c17.673 0 32-14.327 32-32s-14.327-32-32-32v0h-256c-17.673 0-32 14.327-32 32s14.327 32 32 32v0zM726.63 233.37l-128-128c-5.789-5.782-13.784-9.359-22.613-9.359-17.669 0-31.994 14.321-32 31.988v50.757l-73.387-73.387c-5.79-5.768-13.776-9.334-22.596-9.334-17.664 0-31.987 14.305-32.017 31.962v50.759l-73.387-73.387c-5.836-6.093-14.037-9.879-23.123-9.879-17.673 0-32 14.327-32 32 0 9.086 3.787 17.287 9.868 23.112l0.012 0.011 128 128c5.79 5.768 13.777 9.335 22.596 9.335 17.658 0 31.978-14.295 32.017-31.944v-50.777l73.387 73.387c5.79 5.768 13.776 9.334 22.596 9.334 17.664 0 31.987-14.305 32.017-31.962v-50.759l73.387 73.387c5.836 6.093 14.037 9.879 23.123 9.879 17.673 0 32-14.327 32-32 0-9.086-3.787-17.287-9.868-23.112l-0.012-0.011zM704 384h-384c-17.673 0-32 14.327-32 32s14.327 32 32 32v0h384c17.673 0 32-14.327 32-32s-14.327-32-32-32v0zM704 544h-384c-17.673 0-32 14.327-32 32s14.327 32 32 32v0h384c17.673 0 32-14.327 32-32s-14.327-32-32-32v0z" />
<glyph unicode="&#xe946;" glyph-name="Mask-Group--25" d="M941.807 696.422c-1.229 26.931-1.229 52.651-1.229 78.37 0.004 0.195 0.006 0.424 0.006 0.654 0 19.926-16.153 36.079-36.079 36.079-0.224 0-0.448-0.002-0.671-0.006h0.034c-153.071 0-269.397 44.083-366.131 138.377-6.723 6.256-15.769 10.096-25.711 10.096s-18.988-3.84-25.734-10.118l0.023 0.021c-96.751-94.293-213.077-138.377-366.131-138.377-0.195 0.004-0.424 0.006-0.654 0.006-19.926 0-36.079-16.153-36.079-36.079 0-0.23 0.002-0.46 0.006-0.689l-0.001 0.034c0-25.719 0-51.422-1.229-78.37-4.915-257.143-12.254-609.809 417.553-757.965l12.237-2.441 12.237 2.441c428.595 148.156 422.468 499.593 417.553 757.965zM482.714 340.087c-6.836-6.015-15.838-9.713-25.702-9.796h-1.246c-10.311 0.192-19.488 4.883-25.678 12.187l-0.041 0.050-113.886 126.123 55.108 48.981 89.259-99.174 198.434 188.57 50.21-53.879z" />
<glyph unicode="&#xe947;" glyph-name="Mask-Group-26" d="M923.392 144.469l-76.8 128c-5.695 9.368-15.846 15.531-27.436 15.531-0.002 0-0.005 0-0.007 0h-152.729l-54.528 284.177c55.594 34.289 92.092 94.857 92.092 163.949 0 106.029-85.954 191.983-191.983 191.983s-191.983-85.954-191.983-191.983c0-69.092 36.498-129.659 91.265-163.474l0.827-0.475-54.528-284.177h-152.747c-11.587-0.004-21.733-6.165-27.346-15.389l-0.080-0.142-76.8-128c-2.852-4.693-4.54-10.367-4.54-16.435 0-17.665 14.306-31.988 31.964-32.017h768.003c17.665 0.023 31.977 14.349 31.977 32.017 0 6.075-1.692 11.755-4.631 16.594l0.080-0.142zM224-32h576c35.327 0.048 63.951 28.673 64 63.995v0.005h-704c0.048-35.327 28.673-63.951 63.995-64h0.005z" />
<glyph unicode="&#xe948;" glyph-name="Mask-Group--26" d="M914.005 861.013h-13.995v42.001c0 16.57-13.433 30.003-30.003 30.003s-30.003-13.433-30.003-30.003v0-42.001h-119.996v42.001c0 16.57-13.433 30.003-30.003 30.003s-30.003-13.433-30.003-30.003v0-42.001h-119.996v42.001c0 16.57-13.433 30.003-30.003 30.003s-30.003-13.433-30.003-30.003v-42.001h-119.996v42.001c0 16.57-13.433 30.003-30.003 30.003s-30.003-13.433-30.003-30.003v0-42.001h-119.996v42.001c0 16.57-13.433 30.003-30.003 30.003s-30.003-13.433-30.003-30.003v0-42.001h-10.001c-60.723-0.078-109.927-49.287-109.995-110.005v-90h1024v89.993c-0.068 60.724-49.272 109.934-109.987 110.012h-0.007zM0 72.994c0.078-60.717 49.278-109.917 109.987-109.995h804.018c60.717 0.078 109.917 49.278 109.995 109.987v528.016h-1024zM842.001 131.021c0-16.57-13.433-30.003-30.003-30.003v0h-119.996c-16.57 0-30.003 13.433-30.003 30.003v0 123.921c0 16.57 13.433 30.003 30.003 30.003v0h119.996c16.57 0 30.003-13.433 30.003-30.003v0zM670.72 473.788c-5.586 5.454-9.050 13.060-9.050 21.474 0 16.57 13.433 30.003 30.003 30.003 8.415 0 16.020-3.464 21.469-9.044l38.799-38.799 38.793 38.793c5.454 5.586 13.060 9.050 21.474 9.050 16.57 0 30.003-13.433 30.003-30.003 0-8.415-3.464-16.020-9.044-21.469l-0.006-0.006-38.741-38.793 40.789-40.789c5.275-5.402 8.529-12.798 8.529-20.953 0-16.57-13.433-30.003-30.003-30.003-8.156 0-15.551 3.254-20.959 8.535l-40.783 40.783-40.789-40.789c-5.454-5.586-13.060-9.050-21.474-9.050-16.57 0-30.003 13.433-30.003 30.003 0 8.415 3.464 16.020 9.044 21.469l40.795 40.795zM430.711 473.788c-5.586 5.454-9.050 13.060-9.050 21.474 0 16.57 13.433 30.003 30.003 30.003 8.415 0 16.020-3.464 21.469-9.044l0.006-0.006 38.861-38.793 38.793 38.793c5.454 5.586 13.060 9.050 21.474 9.050 16.57 0 30.003-13.433 30.003-30.003 0-8.415-3.464-16.020-9.044-21.469l-38.799-38.799 40.789-40.789c5.275-5.402 8.529-12.798 8.529-20.953 0-16.57-13.433-30.003-30.003-30.003-8.156 0-15.551 3.254-20.959 8.535l-40.783 40.783-40.789-40.789c-5.402-5.275-12.798-8.529-20.953-8.529-16.57 0-30.003 13.433-30.003 30.003 0 8.156 3.254 15.551 8.535 20.959l40.783 40.783zM428.783 152.201l40.789 40.789-38.793 38.793c-5.586 5.454-9.050 13.060-9.050 21.474 0 16.57 13.433 30.003 30.003 30.003 8.415 0 16.020-3.464 21.469-9.044l38.799-38.799 38.793 38.793c5.454 5.586 13.060 9.050 21.474 9.050 16.57 0 30.003-13.433 30.003-30.003 0-8.415-3.464-16.020-9.044-21.469l-38.799-38.799 40.789-40.789c5.275-5.402 8.529-12.798 8.529-20.953 0-16.57-13.433-30.003-30.003-30.003-8.156 0-15.551 3.254-20.959 8.535l-40.783 40.783-40.789-40.789c-5.454-5.586-13.060-9.050-21.474-9.050-16.57 0-30.003 13.433-30.003 30.003 0 8.415 3.464 16.020 9.044 21.469l0.006 0.006zM181.999 495.002c0 16.57 13.433 30.003 30.003 30.003v0h119.996c16.57 0 30.003-13.433 30.003-30.003v0-124.006c0-16.57-13.433-30.003-30.003-30.003v0h-119.996c-16.57 0-30.003 13.433-30.003 30.003v0zM190.788 231.782c-5.586 5.454-9.050 13.060-9.050 21.474 0 16.57 13.433 30.003 30.003 30.003 8.415 0 16.020-3.464 21.469-9.044l38.799-38.799 38.793 38.793c5.434 5.44 12.944 8.805 21.239 8.805 16.579 0 30.019-13.44 30.019-30.019 0-8.283-3.355-15.783-8.78-21.214v0l-38.861-38.793 40.789-40.789c5.275-5.402 8.529-12.798 8.529-20.953 0-16.57-13.433-30.003-30.003-30.003-8.156 0-15.551 3.254-20.959 8.535l-40.783 40.783-40.789-40.789c-5.454-5.586-13.060-9.050-21.474-9.050-16.57 0-30.003 13.433-30.003 30.003 0 8.415 3.464 16.020 9.044 21.469l40.795 40.795zM722.005 225.007h60.006v-64h-60.006v64zM242.005 464.998h60.006v-64h-60.006v64z" />
<glyph unicode="&#xe949;" glyph-name="Mask-Group-27" d="M941.807 696.422c-1.229 26.931-1.229 52.651-1.229 78.37 0.004 0.195 0.006 0.424 0.006 0.654 0 19.926-16.153 36.079-36.079 36.079-0.224 0-0.448-0.002-0.671-0.006h0.034c-153.071 0-269.397 44.083-366.131 138.377-6.723 6.256-15.769 10.096-25.711 10.096s-18.988-3.84-25.734-10.118l0.023 0.021c-96.751-94.293-213.077-138.377-366.131-138.377-0.195 0.004-0.424 0.006-0.654 0.006-19.926 0-36.079-16.153-36.079-36.079 0-0.23 0.002-0.46 0.006-0.689l-0.001 0.034c0-25.719 0-51.422-1.229-78.37-4.915-257.143-12.254-609.809 417.553-757.965l12.237-2.441 12.237 2.441c428.595 148.156 422.468 499.593 417.553 757.965zM482.714 340.087c-6.836-6.015-15.838-9.713-25.702-9.796h-1.246c-10.311 0.192-19.488 4.883-25.678 12.187l-0.041 0.050-113.886 126.123 55.108 48.981 89.259-99.174 198.434 188.57 50.21-53.879z" />
<glyph unicode="&#xe94a;" glyph-name="Mask-Group--27" d="M768 256.017c0.001 0.243 0.002 0.53 0.002 0.818 0 88.366-71.634 160-160 160s-160-71.634-160-160c0-52.164 24.963-98.498 63.596-127.707l0.402-0.292v-128.802c0.019-17.668 14.347-31.983 32.017-31.983 6.608 0 12.748 2.002 17.847 5.431l-0.115-0.073 46.251 30.839 46.251-30.839c4.988-3.366 11.134-5.374 17.749-5.374 17.672 0 31.999 14.326 32 31.998v0 128.802c38.903 29.272 63.839 75.298 64 127.155v0.026zM864 928h-704c-17.673 0-32-14.327-32-32v0-832c0-17.673 14.327-32 32-32v0h288v67.55c-39.575 40.368-64 95.715-64 156.767 0 123.712 100.288 224 224 224s224-100.288 224-224c0-61.052-24.425-116.4-64.036-156.804l0.036 0.037v-67.55h96c17.673 0 32 14.327 32 32v0 832c0 17.673-14.327 32-32 32v0zM704 576h-384c-17.673 0-32 14.327-32 32s14.327 32 32 32v0h384c17.673 0 32-14.327 32-32s-14.327-32-32-32v0zM704 736h-384c-17.673 0-32 14.327-32 32s14.327 32 32 32v0h384c17.673 0 32-14.327 32-32s-14.327-32-32-32v0z" />
<glyph unicode="&#xe94b;" glyph-name="Mask-Group-28" d="M914.005 861.013h-13.995v42.001c0 16.57-13.433 30.003-30.003 30.003s-30.003-13.433-30.003-30.003v0-42.001h-119.996v42.001c0 16.57-13.433 30.003-30.003 30.003s-30.003-13.433-30.003-30.003v0-42.001h-119.996v42.001c0 16.57-13.433 30.003-30.003 30.003s-30.003-13.433-30.003-30.003v-42.001h-119.996v42.001c0 16.57-13.433 30.003-30.003 30.003s-30.003-13.433-30.003-30.003v0-42.001h-119.996v42.001c0 16.57-13.433 30.003-30.003 30.003s-30.003-13.433-30.003-30.003v0-42.001h-10.001c-60.723-0.078-109.927-49.287-109.995-110.005v-90h1024v89.993c-0.068 60.724-49.272 109.934-109.987 110.012h-0.007zM0 72.994c0.078-60.717 49.278-109.917 109.987-109.995h804.018c60.717 0.078 109.917 49.278 109.995 109.987v528.016h-1024zM842.001 131.021c0-16.57-13.433-30.003-30.003-30.003v0h-119.996c-16.57 0-30.003 13.433-30.003 30.003v0 123.921c0 16.57 13.433 30.003 30.003 30.003v0h119.996c16.57 0 30.003-13.433 30.003-30.003v0zM670.72 473.788c-5.586 5.454-9.050 13.060-9.050 21.474 0 16.57 13.433 30.003 30.003 30.003 8.415 0 16.020-3.464 21.469-9.044l38.799-38.799 38.793 38.793c5.454 5.586 13.060 9.050 21.474 9.050 16.57 0 30.003-13.433 30.003-30.003 0-8.415-3.464-16.020-9.044-21.469l-0.006-0.006-38.741-38.793 40.789-40.789c5.275-5.402 8.529-12.798 8.529-20.953 0-16.57-13.433-30.003-30.003-30.003-8.156 0-15.551 3.254-20.959 8.535l-40.783 40.783-40.789-40.789c-5.454-5.586-13.060-9.050-21.474-9.050-16.57 0-30.003 13.433-30.003 30.003 0 8.415 3.464 16.020 9.044 21.469l40.795 40.795zM430.711 473.788c-5.586 5.454-9.050 13.060-9.050 21.474 0 16.57 13.433 30.003 30.003 30.003 8.415 0 16.020-3.464 21.469-9.044l0.006-0.006 38.861-38.793 38.793 38.793c5.454 5.586 13.060 9.050 21.474 9.050 16.57 0 30.003-13.433 30.003-30.003 0-8.415-3.464-16.020-9.044-21.469l-38.799-38.799 40.789-40.789c5.275-5.402 8.529-12.798 8.529-20.953 0-16.57-13.433-30.003-30.003-30.003-8.156 0-15.551 3.254-20.959 8.535l-40.783 40.783-40.789-40.789c-5.402-5.275-12.798-8.529-20.953-8.529-16.57 0-30.003 13.433-30.003 30.003 0 8.156 3.254 15.551 8.535 20.959l40.783 40.783zM428.783 152.201l40.789 40.789-38.793 38.793c-5.586 5.454-9.050 13.060-9.050 21.474 0 16.57 13.433 30.003 30.003 30.003 8.415 0 16.020-3.464 21.469-9.044l38.799-38.799 38.793 38.793c5.454 5.586 13.060 9.050 21.474 9.050 16.57 0 30.003-13.433 30.003-30.003 0-8.415-3.464-16.020-9.044-21.469l-38.799-38.799 40.789-40.789c5.275-5.402 8.529-12.798 8.529-20.953 0-16.57-13.433-30.003-30.003-30.003-8.156 0-15.551 3.254-20.959 8.535l-40.783 40.783-40.789-40.789c-5.454-5.586-13.060-9.050-21.474-9.050-16.57 0-30.003 13.433-30.003 30.003 0 8.415 3.464 16.020 9.044 21.469l0.006 0.006zM181.999 495.002c0 16.57 13.433 30.003 30.003 30.003v0h119.996c16.57 0 30.003-13.433 30.003-30.003v0-124.006c0-16.57-13.433-30.003-30.003-30.003v0h-119.996c-16.57 0-30.003 13.433-30.003 30.003v0zM190.788 231.782c-5.586 5.454-9.050 13.060-9.050 21.474 0 16.57 13.433 30.003 30.003 30.003 8.415 0 16.020-3.464 21.469-9.044l38.799-38.799 38.793 38.793c5.434 5.44 12.944 8.805 21.239 8.805 16.579 0 30.019-13.44 30.019-30.019 0-8.283-3.355-15.783-8.78-21.214v0l-38.861-38.793 40.789-40.789c5.275-5.402 8.529-12.798 8.529-20.953 0-16.57-13.433-30.003-30.003-30.003-8.156 0-15.551 3.254-20.959 8.535l-40.783 40.783-40.789-40.789c-5.454-5.586-13.060-9.050-21.474-9.050-16.57 0-30.003 13.433-30.003 30.003 0 8.415 3.464 16.020 9.044 21.469l40.795 40.795zM722.005 225.007h60.006v-64h-60.006v64zM242.005 464.998h60.006v-64h-60.006v64z" />
<glyph unicode="&#xe94c;" glyph-name="Mask-Group--28" d="M522.121 672.939c76.928 1.352 138.771 64.032 138.771 141.155 0 0.805-0.007 1.609-0.020 2.411l0.002-0.121c0.013 0.717 0.021 1.563 0.021 2.411 0 77.134-61.838 139.826-138.643 141.204l-0.129 0.002c-77.029-1.343-138.958-64.102-138.958-141.326 0-0.805 0.007-1.609 0.020-2.411l-0.002 0.121c-0.011-0.645-0.017-1.407-0.017-2.17 0-77.213 61.934-139.96 138.833-141.274l0.123-0.002zM768.239 551.219c-6.827 20.941-46.251 84.412-153.054 84.992l-209.050-0.546c-103.68 5.803-145.067-55.467-151.535-82.62 0 0-69.973-223.573-58.027-275.337 7.441-32.137 63.147-71.475 122.607-100.693l-79.002-241.015h557.756l-76.937 249.446c53.009 28.058 99.584 63.147 106.308 92.279 12.186 52.395-59.068 273.493-59.068 273.493zM428.612 304.862c-9.304-4.285-20.184-6.796-31.648-6.827h-0.011c-0.275-0.003-0.6-0.005-0.925-0.005-44.235 0-80.094 35.859-80.094 80.094s35.859 80.094 80.094 80.094c43.459 0 78.833-34.612 80.061-77.774l0.003-0.113c10.721 7.79 23.497 13.467 37.343 16.135l0.596 0.096v-0.171c4.187 0.867 8.999 1.364 13.926 1.364s9.739-0.497 14.388-1.442l-0.461 0.078c52.634-11.657 168.96-63.249 168.96-63.249-43.226-47.271-105.169-76.807-174.011-76.807-0.624 0-1.248 0.002-1.871 0.007l0.095-0.001c-2.97 0-5.854 0-8.533 0.188v0c-10.428 0.256-19.814 0.939-28.245 1.963-53.692 6.281-69.018 26.249-69.666 46.37z" />
<glyph unicode="&#xe94d;" glyph-name="Mask-Group-29" d="M768 256.017c0.001 0.243 0.002 0.53 0.002 0.818 0 88.366-71.634 160-160 160s-160-71.634-160-160c0-52.164 24.963-98.498 63.596-127.707l0.402-0.292v-128.802c0.019-17.668 14.347-31.983 32.017-31.983 6.608 0 12.748 2.002 17.847 5.431l-0.115-0.073 46.251 30.839 46.251-30.839c4.988-3.366 11.134-5.374 17.749-5.374 17.672 0 31.999 14.326 32 31.998v0 128.802c38.903 29.272 63.839 75.298 64 127.155v0.026zM864 928h-704c-17.673 0-32-14.327-32-32v0-832c0-17.673 14.327-32 32-32v0h288v67.55c-39.575 40.368-64 95.715-64 156.767 0 123.712 100.288 224 224 224s224-100.288 224-224c0-61.052-24.425-116.4-64.036-156.804l0.036 0.037v-67.55h96c17.673 0 32 14.327 32 32v0 832c0 17.673-14.327 32-32 32v0zM704 576h-384c-17.673 0-32 14.327-32 32s14.327 32 32 32v0h384c17.673 0 32-14.327 32-32s-14.327-32-32-32v0zM704 736h-384c-17.673 0-32 14.327-32 32s14.327 32 32 32v0h384c17.673 0 32-14.327 32-32s-14.327-32-32-32v0z" />
<glyph unicode="&#xe94e;" glyph-name="Mask-Group--29" d="M928 736h-832c-35.331-0.039-63.961-28.669-64-63.996v-448.004c0.039-35.331 28.669-63.961 63.996-64h832.004c35.331 0.039 63.961 28.669 64 63.996v448.004c-0.039 35.331-28.669 63.961-63.996 64h-0.004zM630.63 393.37l-128-128c-5.788-5.792-13.787-9.374-22.622-9.374s-16.833 3.582-22.622 9.374l-64 64c-6.093 5.836-9.879 14.037-9.879 23.123 0 17.673 14.327 32 32 32 9.086 0 17.287-3.787 23.112-9.868l0.011-0.012 41.37-41.37 105.37 105.37c5.836 6.093 14.037 9.879 23.123 9.879 17.673 0 32-14.327 32-32 0-9.086-3.787-17.287-9.868-23.112l-0.012-0.011zM736 544h-448c-17.673 0-32 14.327-32 32s14.327 32 32 32v0h448c17.673 0 32-14.327 32-32s-14.327-32-32-32v0z" />
<glyph unicode="&#xe94f;" glyph-name="Mask-Group-30" d="M522.121 672.939c76.928 1.352 138.771 64.032 138.771 141.155 0 0.805-0.007 1.609-0.020 2.411l0.002-0.121c0.013 0.717 0.021 1.563 0.021 2.411 0 77.134-61.838 139.826-138.643 141.204l-0.129 0.002c-77.029-1.343-138.958-64.102-138.958-141.326 0-0.805 0.007-1.609 0.020-2.411l-0.002 0.121c-0.011-0.645-0.017-1.407-0.017-2.17 0-77.213 61.934-139.96 138.833-141.274l0.123-0.002zM768.239 551.219c-6.827 20.941-46.251 84.412-153.054 84.992l-209.050-0.546c-103.68 5.803-145.067-55.467-151.535-82.62 0 0-69.973-223.573-58.027-275.337 7.441-32.137 63.147-71.475 122.607-100.693l-79.002-241.015h557.756l-76.937 249.446c53.009 28.058 99.584 63.147 106.308 92.279 12.186 52.395-59.068 273.493-59.068 273.493zM428.612 304.862c-9.304-4.285-20.184-6.796-31.648-6.827h-0.011c-0.275-0.003-0.6-0.005-0.925-0.005-44.235 0-80.094 35.859-80.094 80.094s35.859 80.094 80.094 80.094c43.459 0 78.833-34.612 80.061-77.774l0.003-0.113c10.721 7.79 23.497 13.467 37.343 16.135l0.596 0.096v-0.171c4.187 0.867 8.999 1.364 13.926 1.364s9.739-0.497 14.388-1.442l-0.461 0.078c52.634-11.657 168.96-63.249 168.96-63.249-43.226-47.271-105.169-76.807-174.011-76.807-0.624 0-1.248 0.002-1.871 0.007l0.095-0.001c-2.97 0-5.854 0-8.533 0.188v0c-10.428 0.256-19.814 0.939-28.245 1.963-53.692 6.281-69.018 26.249-69.666 46.37z" />
<glyph unicode="&#xe950;" glyph-name="Mask-Group--30" d="M175.445 688.265c0.126-149.857 121.639-271.292 271.514-271.292 149.953 0 271.514 121.561 271.514 271.514s-121.561 271.514-271.514 271.514c-0.018 0-0.036 0-0.054 0h0.003c-149.925 0-271.463-121.538-271.463-271.462 0-0.096 0-0.192 0-0.288v0.015zM86.886 63.727c44.373-31.095 140.271-70.878 339.831-70.878 2.113-0.012 4.614-0.019 7.115-0.019 59.72 0 118.515 3.964 176.135 11.643l-6.747-0.735c-19.78 32.732-31.484 72.268-31.484 114.538 0 121.759 97.11 220.837 218.105 224.007l0.294 0.006c-16.242 34.734-34.753 64.642-56.258 92.093l0.774-1.026c-15.866 18.135-34.727 33.178-55.891 44.471l-1.060 0.516c-56.736-63.841-139.066-103.863-230.743-103.863-91.621 0-173.906 39.974-230.365 103.433l-0.272 0.311c-21.643-12.008-39.999-27.111-55.22-44.968l-0.229-0.276c-60.326-77.856-99.8-174.635-108.535-280.136l-0.128-1.925c-2.065-28.058 11.213-70.827 34.679-87.194zM790.101 299.844c-100.478 0-181.931-81.453-181.931-181.931s81.453-181.931 181.931-181.931c100.478 0 181.931 81.453 181.931 181.931v0c0 100.478-81.453 181.931-181.931 181.931v0zM879.906 84.446h-182.477c-0.179-0.005-0.389-0.009-0.599-0.009-11.622 0-21.043 9.421-21.043 21.043s9.421 21.043 21.043 21.043c0.211 0 0.421-0.003 0.63-0.009l-0.031 0.001h182.46c0.179 0.005 0.389 0.009 0.599 0.009 11.622 0 21.043-9.421 21.043-21.043s-9.421-21.043-21.043-21.043c-0.211 0-0.421 0.003-0.63 0.009l0.031-0.001z" />
<glyph unicode="&#xe951;" glyph-name="Mask-Group-31" d="M928 736h-832c-35.331-0.039-63.961-28.669-64-63.996v-448.004c0.039-35.331 28.669-63.961 63.996-64h832.004c35.331 0.039 63.961 28.669 64 63.996v448.004c-0.039 35.331-28.669 63.961-63.996 64h-0.004zM630.63 393.37l-128-128c-5.788-5.792-13.787-9.374-22.622-9.374s-16.833 3.582-22.622 9.374l-64 64c-6.093 5.836-9.879 14.037-9.879 23.123 0 17.673 14.327 32 32 32 9.086 0 17.287-3.787 23.112-9.868l0.011-0.012 41.37-41.37 105.37 105.37c5.836 6.093 14.037 9.879 23.123 9.879 17.673 0 32-14.327 32-32 0-9.086-3.787-17.287-9.868-23.112l-0.012-0.011zM736 544h-448c-17.673 0-32 14.327-32 32s14.327 32 32 32v0h448c17.673 0 32-14.327 32-32s-14.327-32-32-32v0z" />
<glyph unicode="&#xe952;" glyph-name="Mask-Group--31" d="M481.997 839.066c-119.963-6.877-227.659-54.41-310.678-128.896l0.474 0.418 128.102-128.085c26.827 9.806 57.8 15.476 90.098 15.476 33.009 0 64.635-5.924 93.872-16.766l-1.869 0.607zM598.46 499.439l242.33 221.013c-80.653 68.31-184.056 112.042-297.434 118.551l-1.352 0.062v-288.085c21.548-14.832 40.122-31.844 56.094-51.092l0.362-0.449zM0 327.953v-30.020h119.996v30.020c0.033 94.477 48.587 177.606 122.094 225.826l1.025 0.631-113.732 113.749c-80.291-89.495-129.384-208.408-129.384-338.789 0-0.499 0.001-0.997 0.002-1.496v0.077zM864.905 297.95h159.095v30.003c0 0.099 0 0.215 0 0.332 0 45.211-5.821 89.063-16.755 130.846l0.797-3.587zM512 296.96c-66.267-0.006-119.984-53.728-119.984-119.996 0-66.272 53.724-119.996 119.996-119.996s119.996 53.724 119.996 119.996c0 33.139-13.433 63.14-35.151 84.855v0c-21.598 21.707-51.493 35.141-84.526 35.141-0.116 0-0.232 0-0.348 0h0.018zM896.375 689.971l-366.012-333.943c84.792-8.931 151.552-75.65 160.478-159.641l0.068-0.786 333.090 366.78v127.59z" />
<glyph unicode="&#xe953;" glyph-name="Mask-Group-32" d="M175.445 688.265c0.126-149.857 121.639-271.292 271.514-271.292 149.953 0 271.514 121.561 271.514 271.514s-121.561 271.514-271.514 271.514c-0.018 0-0.036 0-0.054 0h0.003c-149.925 0-271.463-121.538-271.463-271.462 0-0.096 0-0.192 0-0.288v0.015zM86.886 63.727c44.373-31.095 140.271-70.878 339.831-70.878 2.113-0.012 4.614-0.019 7.115-0.019 59.72 0 118.515 3.964 176.135 11.643l-6.747-0.735c-19.78 32.732-31.484 72.268-31.484 114.538 0 121.759 97.11 220.837 218.105 224.007l0.294 0.006c-16.242 34.734-34.753 64.642-56.258 92.093l0.774-1.026c-15.866 18.135-34.727 33.178-55.891 44.471l-1.060 0.516c-56.736-63.841-139.066-103.863-230.743-103.863-91.621 0-173.906 39.974-230.365 103.433l-0.272 0.311c-21.643-12.008-39.999-27.111-55.22-44.968l-0.229-0.276c-60.326-77.856-99.8-174.635-108.535-280.136l-0.128-1.925c-2.065-28.058 11.213-70.827 34.679-87.194zM790.101 299.844c-100.478 0-181.931-81.453-181.931-181.931s81.453-181.931 181.931-181.931c100.478 0 181.931 81.453 181.931 181.931v0c0 100.478-81.453 181.931-181.931 181.931v0zM879.906 84.446h-182.477c-0.179-0.005-0.389-0.009-0.599-0.009-11.622 0-21.043 9.421-21.043 21.043s9.421 21.043 21.043 21.043c0.211 0 0.421-0.003 0.63-0.009l-0.031 0.001h182.46c0.179 0.005 0.389 0.009 0.599 0.009 11.622 0 21.043-9.421 21.043-21.043s-9.421-21.043-21.043-21.043c-0.211 0-0.421 0.003-0.63 0.009l0.031-0.001z" />
<glyph unicode="&#xe954;" glyph-name="Mask-Group--32" d="M512 800c-194.404 0-352-157.596-352-352s157.596-352 352-352c194.404 0 352 157.596 352 352v0c0 194.404-157.596 352-352 352v0zM576 416h-64c-17.673 0-32 14.327-32 32v0 128c0 17.673 14.327 32 32 32s32-14.327 32-32v0-96h32c17.673 0 32-14.327 32-32s-14.327-32-32-32v0zM512 32c-61.687 0.034-120.2 13.587-172.748 37.856l2.56-1.060 19.149-76.578c3.59-14.038 16.124-24.25 31.044-24.252h239.992c0 0 0 0 0.001 0 14.915 0 27.447 10.204 30.995 24.013l0.048 0.222 19.217 76.612c-49.984-23.206-108.491-36.759-170.159-36.796h-0.013zM512 864c61.71-0.024 120.248-13.578 172.817-37.856l-2.56 1.060-19.217 76.544c-3.59 14.038-16.124 24.25-31.044 24.252h-239.992c0 0 0 0-0.001 0-14.915 0-27.447-10.204-30.995-24.013l-0.048-0.222-19.149-76.561c49.989 23.208 108.502 36.761 170.177 36.796h0.012z" />
<glyph unicode="&#xe955;" glyph-name="Mask-Group-33" d="M481.997 839.066c-119.967-6.866-227.67-54.395-310.695-128.879l0.474 0.418 128-128c26.837 9.813 57.821 15.489 90.13 15.489 33.004 0 64.624-5.922 93.857-16.761l-1.869 0.607zM598.477 499.354l242.33 221.082c-80.656 68.318-184.066 112.057-297.451 118.568l-1.353 0.062v-288.102c21.495-14.857 40.024-31.889 55.952-51.152l0.368-0.458zM0 327.936v-30.003h120.013v30.003c0 0.021 0 0.047 0 0.073 0 94.409 48.459 177.499 121.86 225.756l1.020 0.63-113.51 113.766c-80.291-89.497-129.384-208.413-129.384-338.795 0-0.502 0.001-1.005 0.002-1.507v0.078zM864.922 297.933h159.078v30.003c0 0.082 0 0.179 0 0.276 0 45.231-5.827 89.102-16.772 130.901l0.798-3.587zM511.949 296.96c-66.279-0.002-120.009-53.733-120.009-120.013s53.732-120.013 120.013-120.013 120.013 53.732 120.013 120.013c0 33.154-13.444 63.169-35.178 84.889l-0.001 0.001c-21.599 21.697-51.489 35.124-84.516 35.124-0.113 0-0.227 0-0.34 0h0.018zM896.41 689.971l-366.029-333.926c84.791-8.928 151.553-75.638 160.495-159.623l0.068-0.787 333.056 366.746v127.59z" />
<glyph unicode="&#xe956;" glyph-name="Mask-Group--33" d="M438.886 960c-0.093 0.001-0.203 0.001-0.313 0.001-9.983 0-18.994-4.161-25.394-10.843l-0.012-0.013c-6.695-6.409-10.856-15.418-10.856-25.399 0-0.113 0.001-0.225 0.002-0.338v0.017-237.722c0-20.199-16.375-36.574-36.574-36.574s-36.574 16.375-36.574 36.574v0 237.722c0.001 0.090 0.001 0.197 0.001 0.304 0 9.989-4.168 19.005-10.86 25.403l-0.013 0.013c-6.521 6.714-15.634 10.88-25.719 10.88s-19.198-4.166-25.711-10.871l-0.008-0.009c-6.695-6.412-10.856-15.423-10.856-25.406 0-0.11 0.001-0.22 0.002-0.33v0.017-237.722c0-0.063 0.001-0.138 0.001-0.212 0-20.086-16.283-36.369-36.369-36.369-10.147 0-19.323 4.155-25.92 10.857l-0.005 0.005c-6.695 6.406-10.856 15.413-10.856 25.392 0 0.115 0.001 0.23 0.002 0.345v-0.018 237.722c0.001 0.095 0.001 0.208 0.001 0.321 0 9.981-4.161 18.99-10.843 25.387l-0.013 0.012c-6.521 6.714-15.634 10.88-25.719 10.88s-19.198-4.166-25.711-10.871l-0.008-0.009c-6.695-6.412-10.856-15.423-10.856-25.406 0-0.11 0.001-0.22 0.002-0.33v0.017-365.722c0.101-47.45 30.227-87.837 72.383-103.181l0.765-0.243v-445.133c-0.002-0.183-0.003-0.4-0.003-0.617 0-19.964 8.322-37.984 21.686-50.781l0.026-0.024c12.822-13.4 30.849-21.729 50.821-21.729 0.217 0 0.434 0.001 0.651 0.003h73.115c40.168 0.568 72.579 32.98 73.147 73.094l0.001 0.054v445.15c42.918 15.591 73.041 55.976 73.148 103.411v365.718c0.001 0.091 0.001 0.198 0.001 0.306 0 9.985-4.161 18.999-10.843 25.401l-0.013 0.012c-6.406 6.695-15.413 10.856-25.392 10.856-0.109 0-0.218 0-0.328-0.001h0.017zM903.424 949.146c-6.412 6.695-15.423 10.856-25.406 10.856-0.11 0-0.22-0.001-0.33-0.002h-146.261c-0.745 0.011-1.623 0.018-2.504 0.018-49.693 0-94.578-20.586-126.592-53.694l-0.047-0.049c-33.158-32.064-53.744-76.952-53.744-126.647 0-0.878 0.006-1.754 0.019-2.629l-0.002 0.132v-457.131c0.133-10.050 8.245-18.163 18.283-18.295h128.013v-292.574c0.578-40.16 32.986-72.563 73.094-73.13l0.054-0.001h73.131c40.169 0.559 72.587 32.964 73.164 73.076l0.001 0.055v914.295c0.001 0.082 0.001 0.179 0.001 0.275 0 9.998-4.167 19.023-10.86 25.432l-0.013 0.012z" />
<glyph unicode="&#xe957;" glyph-name="Mask-Group-34" d="M235.776 482.97l16.128-73.318 80.026 38.349h1.229v-333.107h95.693v419.84h-81.92zM737.536 360.038c-29.276 19.081-65.108 30.429-103.59 30.429-2.373 0-4.735-0.043-7.087-0.129l0.34 0.010c-1.162 0.026-2.53 0.041-3.903 0.041-8.191 0-16.256-0.536-24.163-1.575l0.93 0.1 9.011 64.512h163.379v81.306h-231.782l-27.699-220.16c15.657 2.398 33.72 3.768 52.103 3.768 1.645 0 3.287-0.011 4.926-0.033l-0.249 0.003c83.917 0 118.118-26.522 118.118-69.786 0-44.544-43.264-63.898-83.917-63.898-34.389 0.371-66.932 7.873-96.349 21.093l1.526-0.613-17.459-73.574c32.454-15.115 70.454-23.934 110.514-23.934 2.224 0 4.442 0.027 6.653 0.081l-0.328-0.006c112.947 0 180.070 69.069 180.070 147.098 0.139 2.158 0.218 4.678 0.218 7.217 0 40.448-20.113 76.198-50.883 97.796l-0.382 0.254zM903.578 896.512v-51.2c-0.172-51.901-42.084-93.957-93.913-94.361h-4.852c-51.985 0.346-94.038 42.381-94.413 94.326v57.994h-102.707v-57.958c-0.346-51.975-42.387-94.016-94.329-94.361h-4.795c-51.89 0.376-93.831 42.442-94.003 94.345v57.975h-104.499v-57.958c0.001-0.153 0.001-0.334 0.001-0.516 0-51.544-41.553-93.383-92.988-93.846h-4.806c-51.755 0.435-93.542 42.491-93.542 94.307 0 0.019 0 0.038 0 0.057v-0.003 50.381c-60.178-20.211-102.759-76.1-102.759-141.934 0-0.195 0-0.39 0.001-0.586v0.030-667.699c0-0.046 0-0.1 0-0.154 0-82.484 66.866-149.35 149.35-149.35 0.18 0 0.36 0 0.54 0.001h692.503c0.122 0 0.266-0.001 0.41-0.001 82.399 0 149.197 66.798 149.197 149.197 0 0.108 0 0.216 0 0.325v-0.017 667.699c0 0.051 0 0.112 0 0.173 0 66.611-43.326 123.103-103.334 142.833l-1.063 0.302zM933.683 99.328c0 0 0-0.001 0-0.001 0-47.909-38.707-86.777-86.554-87.039h-669.977c-47.916 0.204-86.682 39.094-86.682 87.039 0 0 0 0.001 0 0.001v0 474.317c0 0.031 0 0.067 0 0.104 0 32.321 26.201 58.522 58.522 58.522 0.144 0 0.288-0.001 0.432-0.002h725.431c0.137 0.001 0.299 0.002 0.461 0.002 32.264 0 58.419-26.155 58.419-58.419 0-0.073 0-0.145 0-0.218v0.011-474.368zM212.326 797.030h4.762c0.141-0.001 0.308-0.002 0.475-0.002 14.551 0 27.597 6.444 36.44 16.634l0.051 0.060c7.283 8.327 11.726 19.3 11.726 31.311 0 0.098 0 0.197-0.001 0.295v-0.015 66.355c0 0.017 0 0.036 0 0.056 0 13.406-5.418 25.547-14.184 34.353l0.002-0.002s0 0 0 0 0-0.256 0 0c-8.752 8.642-20.783 13.98-34.062 13.98-0.157 0-0.314-0.001-0.471-0.002h-4.738c-0.157 0.002-0.343 0.003-0.529 0.003-13.234 0-25.231-5.297-33.987-13.886l0.008 0.008s0 0 0 0-0.307 0-0.358 0c-8.803-8.791-14.257-20.934-14.285-34.35v-66.565c0.033-12.138 4.569-23.211 12.025-31.641l-0.044 0.051c8.989-10.224 22.097-16.642 36.703-16.642 0.165 0 0.329 0.001 0.493 0.002h-0.025zM480.666 804.813h0.41s0.41 0 0.512 0c7.448-4.851 16.562-7.736 26.35-7.736 0.241 0 0.481 0.002 0.72 0.005h4.726c0.243-0.004 0.529-0.007 0.816-0.007 8.162 0 15.85 2.030 22.587 5.612l-0.26-0.126s0 0 0 0 0 0 0 0c14.927 8.471 24.833 24.256 24.833 42.356 0 0.121 0 0.243-0.001 0.364v-0.019 66.458c0.001 0.126 0.002 0.275 0.002 0.424 0 15.701-7.439 29.664-18.985 38.558l-0.114 0.084s0 0 0 0v-0.358c-7.924 6.020-17.948 9.653-28.82 9.677h-4.716c-0.17 0.002-0.37 0.003-0.57 0.003-12.432 0-23.769-4.683-32.345-12.382l0.045 0.040s0 0 0 0-0.512 0-0.614 0c-9.808-8.888-15.985-21.629-16.128-35.815v-66.585c0.053-16.794 8.512-31.602 21.388-40.442l0.167-0.108zM804.966 796.979h4.762c0.141-0.001 0.308-0.002 0.476-0.002 14.709 0 27.915 6.434 36.958 16.642l0.045 0.052c7.492 8.357 12.112 19.422 12.237 31.565v66.431c-0.11 18.442-10.308 34.478-25.35 42.88l-0.25 0.128-0.717 0.205c-1.229 0.512-2.56 1.126-3.738 1.69l-0.666 0.256-0.87 0.358-1.382 0.512h-0.717c-0.512 0-1.075 0-1.536 0-4.356 1.437-9.371 2.277-14.579 2.304h-4.672c-1.065 0.086-2.306 0.135-3.558 0.135s-2.493-0.049-3.721-0.146l0.162 0.010c-23.486-3.59-41.268-23.647-41.268-47.858 0-0.077 0-0.154 0.001-0.231v0.012-66.56c-0.003-0.184-0.004-0.401-0.004-0.618 0-26.382 21.387-47.77 47.77-47.77 0.217 0 0.435 0.001 0.651 0.004h-0.033z" />
<glyph unicode="&#xe958;" glyph-name="Mask-Group--34" d="M235.759 482.935l16.128-73.387 80.043 38.366h1.212v-333.005h95.693v419.84h-82.039zM737.536 360.073c-29.272 19.070-65.096 30.412-103.568 30.412-2.374 0-4.738-0.043-7.091-0.129l0.34 0.010c-1.166 0.027-2.54 0.042-3.917 0.042-8.191 0-16.258-0.536-24.166-1.575l0.93 0.1 9.028 64.358h163.362v81.459h-231.765l-27.716-220.279c15.689 2.408 33.789 3.783 52.21 3.783 1.601 0 3.2-0.010 4.796-0.031l-0.242 0.002c83.917 0 118.101-26.539 118.101-69.769 0-44.527-43.281-63.898-83.9-63.898-34.41 0.415-66.953 7.963-96.362 21.231l1.522-0.614-17.442-73.574c32.474-15.135 70.499-23.966 110.588-23.966 2.192 0 4.378 0.026 6.557 0.079l-0.323-0.006c112.93 0 180.070 69.052 180.070 147.115 0.138 2.149 0.217 4.66 0.217 7.19 0 40.443-20.097 76.193-50.848 97.807l-0.381 0.254zM903.595 896.461v-51.2c-0.172-51.868-42.037-93.901-93.825-94.344h-4.838c-51.972 0.355-94.012 42.377-94.396 94.308v58.064h-102.775v-58.027c-0.365-51.964-42.397-93.989-94.328-94.344h-4.779c-51.921 0.328-93.906 42.403-94.088 94.327v58.044h-104.499v-58.027c0.001-0.143 0.001-0.312 0.001-0.482 0-51.542-41.541-93.381-92.969-93.862h-4.825c-51.762 0.425-93.559 42.485-93.559 94.307 0 0.013 0 0.026 0 0.039v-0.002 50.432c-60.17-20.222-102.742-76.11-102.742-141.941 0-0.199 0-0.398 0.001-0.596v0.031-667.699c0-0.036 0-0.078 0-0.12 0-82.493 66.874-149.367 149.367-149.367 0.174 0 0.348 0 0.522 0.001h692.487c0.137 0 0.299-0.001 0.461-0.001 82.399 0 149.197 66.798 149.197 149.197 0 0.102 0 0.205 0 0.307v-0.016 667.682c0 0.048 0 0.106 0 0.163 0 66.614-43.335 123.108-103.351 142.827l-1.062 0.302zM933.734 99.26c0-0.076 0-0.166 0-0.256 0-47.858-38.738-86.667-86.568-86.784h-670.031c-47.907 0.117-86.699 38.98-86.699 86.903 0 0.048 0 0.096 0 0.144v-0.008 474.351c0 0.016 0 0.034 0 0.053 0 32.321 26.201 58.522 58.522 58.522 0.162 0 0.324-0.001 0.486-0.002h725.445c0.132 0.001 0.288 0.002 0.444 0.002 32.255 0 58.402-26.148 58.402-58.402 0-0.061 0-0.121 0-0.182v0.009-474.351zM212.361 797.013h4.762c0.123-0.001 0.269-0.002 0.415-0.002 14.549 0 27.592 6.444 36.432 16.633l0.051 0.060c7.284 8.329 11.726 19.304 11.726 31.317 0 0.096 0 0.192-0.001 0.288v-0.015 66.372c0.001 0.098 0.001 0.215 0.001 0.331 0 13.27-5.309 25.301-13.918 34.083l0.008-0.008c-0.085 0-0.085 0.171-0.154 0.239s-0.085-0.273-0.137-0.205c-8.74 8.591-20.735 13.895-33.969 13.895-0.172 0-0.344-0.001-0.515-0.003h-4.736c-0.152 0.002-0.332 0.003-0.512 0.003-13.234 0-25.231-5.297-33.987-13.885l0.008 0.008s0 0-0.137 0-0.29 0-0.358-0.119c-8.793-8.789-14.24-20.925-14.268-34.333v-66.394c0.021-12.134 4.546-23.208 11.992-31.642l-0.045 0.052c8.988-10.245 22.106-16.678 36.726-16.678 0.216 0 0.432 0.001 0.648 0.004h-0.033zM480.649 804.796c0.085 0 0.341-0.119 0.41-0.154s0.41 0.171 0.512 0.085c7.452-4.861 16.574-7.753 26.371-7.753 0.239 0 0.478 0.002 0.716 0.005h4.726c0.246-0.005 0.537-0.007 0.828-0.007 8.164 0 15.853 2.030 22.591 5.612l-0.261-0.126c0.085 0 0.137-0.137 0.222-0.085s0 0.085 0.137 0.205c14.917 8.469 24.816 24.246 24.816 42.336 0 0.116 0 0.232-0.001 0.348v-0.018 66.441c0.001 0.126 0.002 0.275 0.002 0.424 0 15.688-7.425 29.643-18.952 38.541l-0.113 0.084c-0.119 0 0 0.154-0.119 0.222l0.085-0.375c-7.88 5.876-17.809 9.408-28.562 9.408-0.231 0-0.461-0.002-0.691-0.005h-4.727c-0.173 0.002-0.377 0.003-0.581 0.003-12.434 0-23.774-4.683-32.352-12.383l0.045 0.040s0 0.154 0 0.154-0.529-0.085-0.631-0.171c-9.816-8.885-16-21.626-16.145-35.814v-66.603c0.13-16.763 8.621-31.514 21.505-40.304l0.17-0.109zM804.898 796.996h4.762c0.159-0.002 0.347-0.003 0.536-0.003 14.712 0 27.921 6.434 36.966 16.642l0.045 0.052c7.487 8.358 12.102 19.424 12.22 31.566v66.396c-0.191 18.479-10.478 34.511-25.601 42.862l-0.255 0.129c-0.169 0.047-0.305 0.093-0.438 0.147l0.028-0.010c-1.229 0.649-2.526 1.229-3.772 1.707-0.247 0.085-0.455 0.177-0.655 0.284l0.023-0.011-0.905 0.427c-0.461 0.171-0.887 0.358-1.365 0.512l-0.7 0.256c-0.495 0.171-1.058 0-1.536 0.154-4.050 1.21-8.704 1.906-13.52 1.906-0.371 0-0.741-0.004-1.109-0.012l0.055 0.001h-4.762c-0.658 0.033-1.428 0.052-2.202 0.052-1.725 0-3.428-0.093-5.105-0.275l0.208 0.018c-23.476-3.59-41.251-23.639-41.251-47.841 0-0.083 0-0.166 0.001-0.249v0.013-66.475c-0.001-0.138-0.002-0.301-0.002-0.464 0-26.392 21.395-47.787 47.787-47.787 0.193 0 0.385 0.001 0.578 0.003h-0.029z" />
<glyph unicode="&#xe959;" glyph-name="Mask-Group--35" d="M928 736h-320c17.673 0 32 14.327 32 32s-14.327 32-32 32v0h-192c-17.673 0-32-14.327-32-32s14.327-32 32-32v0h-320c-35.331-0.039-63.961-28.669-64-63.996v-512.004c0.039-35.331 28.669-63.961 63.996-64h832.004c35.331 0.039 63.961 28.669 64 63.996v512.004c-0.039 35.331-28.669 63.961-63.996 64h-0.004zM416 256h-256c-17.673 0-32 14.327-32 32v0c0.209 58.873 32.285 110.208 79.87 137.676l0.77 0.41c-10.418 15.127-16.64 33.846-16.64 54.018 0 53.019 42.981 96 96 96s96-42.981 96-96c0-20.172-6.222-38.891-16.851-54.343l0.211 0.324c48.355-27.878 80.431-79.213 80.64-138.056v-0.030c0-17.673-14.327-32-32-32v0zM854.613 457.387l-128-128c-5.788-5.792-13.787-9.374-22.622-9.374s-16.833 3.582-22.622 9.374l-64 64c-6.093 5.836-9.879 14.037-9.879 23.123 0 17.673 14.327 32 32 32 9.086 0 17.287-3.787 23.112-9.868l0.011-0.012 41.37-41.37 105.404 105.37c5.836 6.093 14.037 9.879 23.123 9.879 17.673 0 32-14.327 32-32 0-9.086-3.787-17.287-9.868-23.112l-0.012-0.011z" />
<glyph unicode="&#xe95a;" glyph-name="Mask-Group--36" d="M576 192h-320c-17.669 0.010-31.99 14.331-32 31.999v210.757l41.387-41.387c5.836-6.093 14.037-9.879 23.123-9.879 17.673 0 32 14.327 32 32 0 9.086-3.787 17.287-9.868 23.112l-0.012 0.011-96 96c-5.788 5.792-13.787 9.374-22.622 9.374s-16.833-3.582-22.622-9.374l-96.017-95.983c-5.938-5.814-9.619-13.913-9.619-22.871 0-17.673 14.327-32 32-32 8.954 0 17.050 3.678 22.858 9.605l41.375 41.375v-210.739c0.058-52.996 43.004-95.942 95.994-96h320.023c17.673 0 32 14.327 32 32s-14.327 32-32 32v0zM448 704h320c17.669-0.010 31.99-14.331 32-31.999v-210.757l-41.37 41.37c-5.837 6.098-14.041 9.888-23.131 9.888-17.673 0-32-14.327-32-32 0-9.081 3.783-17.279 9.859-23.104l96.028-96.028c5.79-5.788 13.788-9.367 22.622-9.367s16.832 3.579 22.622 9.367l96 96.017c6.093 5.836 9.879 14.037 9.879 23.123 0 17.673-14.327 32-32 32-9.086 0-17.287-3.787-23.112-9.868l-0.011-0.012-41.387-41.387v210.756c-0.058 52.996-43.004 95.942-95.994 96h-320.006c-17.673 0-32-14.327-32-32s14.327-32 32-32v0zM911.36 138.086c10.418 15.127 16.64 33.846 16.64 54.018 0 53.019-42.981 96-96 96s-96-42.981-96-96c0-20.172 6.222-38.891 16.851-54.343l-0.211 0.324c-48.355-27.878-80.431-79.213-80.64-138.056v-0.030c0.019-17.658 14.339-31.966 32-31.966h256c17.661 0 31.981 14.307 32 31.964v0.002c-0.209 58.873-32.285 110.208-79.87 137.676l-0.77 0.41zM320 608.034c17.661 0 31.981 14.307 32 31.964v0.002c-0.209 58.873-32.285 110.208-79.87 137.676l-0.77 0.41c10.418 15.127 16.64 33.846 16.64 54.018 0 53.019-42.981 96-96 96s-96-42.981-96-96c0-20.172 6.222-38.891 16.851-54.343l-0.211 0.324c-48.355-27.878-80.431-79.213-80.64-138.056v-0.030c0.019-17.658 14.339-31.966 32-31.966v0z" />
<glyph unicode="&#xe95b;" glyph-name="Mask-Group--37" d="M832 416h-160c-17.673 0-32-14.327-32-32v0c0-106.039-85.961-192-192-192s-192 85.961-192 192c0 106.039 85.961 192 192 192v0c17.673 0 32 14.327 32 32v0 160c0 17.673-14.327 32-32 32v0c-229.75 0-416-186.25-416-416s186.25-416 416-416c229.75 0 416 186.25 416 416v0c0 17.673-14.327 32-32 32v0zM576 928c-17.673 0-32-14.327-32-32v0-160c0-17.673 14.327-32 32-32v0c105.992-0.116 191.884-86.008 192-191.989v-0.011c0-17.673 14.327-32 32-32v0h160c17.673 0 32 14.327 32 32v0c-0.243 229.653-186.348 415.758-415.977 416h-0.023z" />
<glyph unicode="&#xe95c;" glyph-name="Mask-Group--38" d="M832 928h-640c-17.673 0-32-14.327-32-32v0-896c0-17.673 14.327-32 32-32v0h640c17.673 0 32 14.327 32 32v0 896c0 17.673-14.327 32-32 32v0zM384 768h256c17.673 0 32-14.327 32-32s-14.327-32-32-32v0h-256c-17.673 0-32 14.327-32 32s14.327 32 32 32v0zM726.63 233.37l-128-128c-5.789-5.782-13.784-9.359-22.613-9.359-17.669 0-31.994 14.321-32 31.988v50.757l-73.387-73.387c-5.79-5.768-13.776-9.334-22.596-9.334-17.664 0-31.987 14.305-32.017 31.962v50.759l-73.387-73.387c-5.836-6.093-14.037-9.879-23.123-9.879-17.673 0-32 14.327-32 32 0 9.086 3.787 17.287 9.868 23.112l0.012 0.011 128 128c5.79 5.768 13.777 9.335 22.596 9.335 17.658 0 31.978-14.295 32.017-31.944v-50.777l73.387 73.387c5.79 5.768 13.776 9.334 22.596 9.334 17.664 0 31.987-14.305 32.017-31.962v-50.759l73.387 73.387c5.836 6.093 14.037 9.879 23.123 9.879 17.673 0 32-14.327 32-32 0-9.086-3.787-17.287-9.868-23.112l-0.012-0.011zM704 384h-384c-17.673 0-32 14.327-32 32s14.327 32 32 32v0h384c17.673 0 32-14.327 32-32s-14.327-32-32-32v0zM704 544h-384c-17.673 0-32 14.327-32 32s14.327 32 32 32v0h384c17.673 0 32-14.327 32-32s-14.327-32-32-32v0z" />
<glyph unicode="&#xe95d;" glyph-name="Mask-Group--39" d="M923.392 144.469l-76.8 128c-5.695 9.368-15.846 15.531-27.436 15.531-0.002 0-0.005 0-0.007 0h-152.729l-54.528 284.177c55.594 34.289 92.092 94.857 92.092 163.949 0 106.029-85.954 191.983-191.983 191.983s-191.983-85.954-191.983-191.983c0-69.092 36.498-129.659 91.265-163.474l0.827-0.475-54.528-284.177h-152.747c-11.587-0.004-21.733-6.165-27.346-15.389l-0.080-0.142-76.8-128c-2.852-4.693-4.54-10.367-4.54-16.435 0-17.665 14.306-31.988 31.964-32.017h768.003c17.665 0.023 31.977 14.349 31.977 32.017 0 6.075-1.692 11.755-4.631 16.594l0.080-0.142zM224-32h576c35.327 0.048 63.951 28.673 64 63.995v0.005h-704c0.048-35.327 28.673-63.951 63.995-64h0.005z" />
<glyph unicode="&#xe95e;" glyph-name="Mask-Group--40" d="M941.807 696.422c-1.229 26.931-1.229 52.651-1.229 78.37 0.004 0.195 0.006 0.424 0.006 0.654 0 19.926-16.153 36.079-36.079 36.079-0.224 0-0.448-0.002-0.671-0.006h0.034c-153.071 0-269.397 44.083-366.131 138.377-6.723 6.256-15.769 10.096-25.711 10.096s-18.988-3.84-25.734-10.118l0.023 0.021c-96.751-94.293-213.077-138.377-366.131-138.377-0.195 0.004-0.424 0.006-0.654 0.006-19.926 0-36.079-16.153-36.079-36.079 0-0.23 0.002-0.46 0.006-0.689l-0.001 0.034c0-25.719 0-51.422-1.229-78.37-4.915-257.143-12.254-609.809 417.553-757.965l12.237-2.441 12.237 2.441c428.595 148.156 422.468 499.593 417.553 757.965zM482.714 340.087c-6.836-6.015-15.838-9.713-25.702-9.796h-1.246c-10.311 0.192-19.488 4.883-25.678 12.187l-0.041 0.050-113.886 126.123 55.108 48.981 89.259-99.174 198.434 188.57 50.21-53.879z" />
</font>
</defs>
</svg>
